<?xml version="1.0" encoding="utf-8" standalone="no"?>
<!DOCTYPE svg PUBLIC "-//W3C//DTD SVG 1.1//EN"
  "http://www.w3.org/Graphics/SVG/1.1/DTD/svg11.dtd">
<svg xmlns:xlink="http://www.w3.org/1999/xlink" width="460.8pt" height="345.6pt" viewBox="0 0 460.8 345.6" xmlns="http://www.w3.org/2000/svg" version="1.1">
 <metadata>
  <rdf:RDF xmlns:dc="http://purl.org/dc/elements/1.1/" xmlns:cc="http://creativecommons.org/ns#" xmlns:rdf="http://www.w3.org/1999/02/22-rdf-syntax-ns#">
   <cc:Work>
    <dc:type rdf:resource="http://purl.org/dc/dcmitype/StillImage"/>
    <dc:date>2023-06-17T17:49:44.199137</dc:date>
    <dc:format>image/svg+xml</dc:format>
    <dc:creator>
     <cc:Agent>
      <dc:title>Matplotlib v3.7.1, https://matplotlib.org/</dc:title>
     </cc:Agent>
    </dc:creator>
   </cc:Work>
  </rdf:RDF>
 </metadata>
 <defs>
  <style type="text/css">*{stroke-linejoin: round; stroke-linecap: butt}</style>
 </defs>
 <g id="figure_1">
  <g id="patch_1">
   <path d="M 0 345.6 
L 460.8 345.6 
L 460.8 0 
L 0 0 
z
" style="fill: #ffffff"/>
  </g>
  <g id="axes_1">
   <g id="patch_2">
    <path d="M 57.6 307.584 
L 414.72 307.584 
L 414.72 41.472 
L 57.6 41.472 
z
" style="fill: #ffffff"/>
   </g>
   <g id="matplotlib.axis_1">
    <g id="xtick_1">
     <g id="line2d_1">
      <defs>
       <path id="mdde5ec76e1" d="M 0 0 
L 0 3.5 
" style="stroke: #000000; stroke-width: 0.8"/>
      </defs>
      <g>
       <use xlink:href="#mdde5ec76e1" x="73.832727" y="307.584" style="stroke: #000000; stroke-width: 0.8"/>
      </g>
     </g>
     <g id="text_1">
      <!-- 0 -->
      <g transform="translate(70.651477 322.182437) scale(0.1 -0.1)">
       <defs>
        <path id="DejaVuSans-30" d="M 2034 4250 
Q 1547 4250 1301 3770 
Q 1056 3291 1056 2328 
Q 1056 1369 1301 889 
Q 1547 409 2034 409 
Q 2525 409 2770 889 
Q 3016 1369 3016 2328 
Q 3016 3291 2770 3770 
Q 2525 4250 2034 4250 
z
M 2034 4750 
Q 2819 4750 3233 4129 
Q 3647 3509 3647 2328 
Q 3647 1150 3233 529 
Q 2819 -91 2034 -91 
Q 1250 -91 836 529 
Q 422 1150 422 2328 
Q 422 3509 836 4129 
Q 1250 4750 2034 4750 
z
" transform="scale(0.015625)"/>
       </defs>
       <use xlink:href="#DejaVuSans-30"/>
      </g>
     </g>
    </g>
    <g id="xtick_2">
     <g id="line2d_2">
      <g>
       <use xlink:href="#mdde5ec76e1" x="138.893758" y="307.584" style="stroke: #000000; stroke-width: 0.8"/>
      </g>
     </g>
     <g id="text_2">
      <!-- 100 -->
      <g transform="translate(129.350008 322.182437) scale(0.1 -0.1)">
       <defs>
        <path id="DejaVuSans-31" d="M 794 531 
L 1825 531 
L 1825 4091 
L 703 3866 
L 703 4441 
L 1819 4666 
L 2450 4666 
L 2450 531 
L 3481 531 
L 3481 0 
L 794 0 
L 794 531 
z
" transform="scale(0.015625)"/>
       </defs>
       <use xlink:href="#DejaVuSans-31"/>
       <use xlink:href="#DejaVuSans-30" x="63.623047"/>
       <use xlink:href="#DejaVuSans-30" x="127.246094"/>
      </g>
     </g>
    </g>
    <g id="xtick_3">
     <g id="line2d_3">
      <g>
       <use xlink:href="#mdde5ec76e1" x="203.95479" y="307.584" style="stroke: #000000; stroke-width: 0.8"/>
      </g>
     </g>
     <g id="text_3">
      <!-- 200 -->
      <g transform="translate(194.41104 322.182437) scale(0.1 -0.1)">
       <defs>
        <path id="DejaVuSans-32" d="M 1228 531 
L 3431 531 
L 3431 0 
L 469 0 
L 469 531 
Q 828 903 1448 1529 
Q 2069 2156 2228 2338 
Q 2531 2678 2651 2914 
Q 2772 3150 2772 3378 
Q 2772 3750 2511 3984 
Q 2250 4219 1831 4219 
Q 1534 4219 1204 4116 
Q 875 4013 500 3803 
L 500 4441 
Q 881 4594 1212 4672 
Q 1544 4750 1819 4750 
Q 2544 4750 2975 4387 
Q 3406 4025 3406 3419 
Q 3406 3131 3298 2873 
Q 3191 2616 2906 2266 
Q 2828 2175 2409 1742 
Q 1991 1309 1228 531 
z
" transform="scale(0.015625)"/>
       </defs>
       <use xlink:href="#DejaVuSans-32"/>
       <use xlink:href="#DejaVuSans-30" x="63.623047"/>
       <use xlink:href="#DejaVuSans-30" x="127.246094"/>
      </g>
     </g>
    </g>
    <g id="xtick_4">
     <g id="line2d_4">
      <g>
       <use xlink:href="#mdde5ec76e1" x="269.015821" y="307.584" style="stroke: #000000; stroke-width: 0.8"/>
      </g>
     </g>
     <g id="text_4">
      <!-- 300 -->
      <g transform="translate(259.472071 322.182437) scale(0.1 -0.1)">
       <defs>
        <path id="DejaVuSans-33" d="M 2597 2516 
Q 3050 2419 3304 2112 
Q 3559 1806 3559 1356 
Q 3559 666 3084 287 
Q 2609 -91 1734 -91 
Q 1441 -91 1130 -33 
Q 819 25 488 141 
L 488 750 
Q 750 597 1062 519 
Q 1375 441 1716 441 
Q 2309 441 2620 675 
Q 2931 909 2931 1356 
Q 2931 1769 2642 2001 
Q 2353 2234 1838 2234 
L 1294 2234 
L 1294 2753 
L 1863 2753 
Q 2328 2753 2575 2939 
Q 2822 3125 2822 3475 
Q 2822 3834 2567 4026 
Q 2313 4219 1838 4219 
Q 1578 4219 1281 4162 
Q 984 4106 628 3988 
L 628 4550 
Q 988 4650 1302 4700 
Q 1616 4750 1894 4750 
Q 2613 4750 3031 4423 
Q 3450 4097 3450 3541 
Q 3450 3153 3228 2886 
Q 3006 2619 2597 2516 
z
" transform="scale(0.015625)"/>
       </defs>
       <use xlink:href="#DejaVuSans-33"/>
       <use xlink:href="#DejaVuSans-30" x="63.623047"/>
       <use xlink:href="#DejaVuSans-30" x="127.246094"/>
      </g>
     </g>
    </g>
    <g id="xtick_5">
     <g id="line2d_5">
      <g>
       <use xlink:href="#mdde5ec76e1" x="334.076852" y="307.584" style="stroke: #000000; stroke-width: 0.8"/>
      </g>
     </g>
     <g id="text_5">
      <!-- 400 -->
      <g transform="translate(324.533102 322.182437) scale(0.1 -0.1)">
       <defs>
        <path id="DejaVuSans-34" d="M 2419 4116 
L 825 1625 
L 2419 1625 
L 2419 4116 
z
M 2253 4666 
L 3047 4666 
L 3047 1625 
L 3713 1625 
L 3713 1100 
L 3047 1100 
L 3047 0 
L 2419 0 
L 2419 1100 
L 313 1100 
L 313 1709 
L 2253 4666 
z
" transform="scale(0.015625)"/>
       </defs>
       <use xlink:href="#DejaVuSans-34"/>
       <use xlink:href="#DejaVuSans-30" x="63.623047"/>
       <use xlink:href="#DejaVuSans-30" x="127.246094"/>
      </g>
     </g>
    </g>
    <g id="xtick_6">
     <g id="line2d_6">
      <g>
       <use xlink:href="#mdde5ec76e1" x="399.137883" y="307.584" style="stroke: #000000; stroke-width: 0.8"/>
      </g>
     </g>
     <g id="text_6">
      <!-- 500 -->
      <g transform="translate(389.594133 322.182437) scale(0.1 -0.1)">
       <defs>
        <path id="DejaVuSans-35" d="M 691 4666 
L 3169 4666 
L 3169 4134 
L 1269 4134 
L 1269 2991 
Q 1406 3038 1543 3061 
Q 1681 3084 1819 3084 
Q 2600 3084 3056 2656 
Q 3513 2228 3513 1497 
Q 3513 744 3044 326 
Q 2575 -91 1722 -91 
Q 1428 -91 1123 -41 
Q 819 9 494 109 
L 494 744 
Q 775 591 1075 516 
Q 1375 441 1709 441 
Q 2250 441 2565 725 
Q 2881 1009 2881 1497 
Q 2881 1984 2565 2268 
Q 2250 2553 1709 2553 
Q 1456 2553 1204 2497 
Q 953 2441 691 2322 
L 691 4666 
z
" transform="scale(0.015625)"/>
       </defs>
       <use xlink:href="#DejaVuSans-35"/>
       <use xlink:href="#DejaVuSans-30" x="63.623047"/>
       <use xlink:href="#DejaVuSans-30" x="127.246094"/>
      </g>
     </g>
    </g>
    <g id="text_7">
     <!-- epoch -->
     <g transform="translate(220.931875 335.860562) scale(0.1 -0.1)">
      <defs>
       <path id="DejaVuSans-65" d="M 3597 1894 
L 3597 1613 
L 953 1613 
Q 991 1019 1311 708 
Q 1631 397 2203 397 
Q 2534 397 2845 478 
Q 3156 559 3463 722 
L 3463 178 
Q 3153 47 2828 -22 
Q 2503 -91 2169 -91 
Q 1331 -91 842 396 
Q 353 884 353 1716 
Q 353 2575 817 3079 
Q 1281 3584 2069 3584 
Q 2775 3584 3186 3129 
Q 3597 2675 3597 1894 
z
M 3022 2063 
Q 3016 2534 2758 2815 
Q 2500 3097 2075 3097 
Q 1594 3097 1305 2825 
Q 1016 2553 972 2059 
L 3022 2063 
z
" transform="scale(0.015625)"/>
       <path id="DejaVuSans-70" d="M 1159 525 
L 1159 -1331 
L 581 -1331 
L 581 3500 
L 1159 3500 
L 1159 2969 
Q 1341 3281 1617 3432 
Q 1894 3584 2278 3584 
Q 2916 3584 3314 3078 
Q 3713 2572 3713 1747 
Q 3713 922 3314 415 
Q 2916 -91 2278 -91 
Q 1894 -91 1617 61 
Q 1341 213 1159 525 
z
M 3116 1747 
Q 3116 2381 2855 2742 
Q 2594 3103 2138 3103 
Q 1681 3103 1420 2742 
Q 1159 2381 1159 1747 
Q 1159 1113 1420 752 
Q 1681 391 2138 391 
Q 2594 391 2855 752 
Q 3116 1113 3116 1747 
z
" transform="scale(0.015625)"/>
       <path id="DejaVuSans-6f" d="M 1959 3097 
Q 1497 3097 1228 2736 
Q 959 2375 959 1747 
Q 959 1119 1226 758 
Q 1494 397 1959 397 
Q 2419 397 2687 759 
Q 2956 1122 2956 1747 
Q 2956 2369 2687 2733 
Q 2419 3097 1959 3097 
z
M 1959 3584 
Q 2709 3584 3137 3096 
Q 3566 2609 3566 1747 
Q 3566 888 3137 398 
Q 2709 -91 1959 -91 
Q 1206 -91 779 398 
Q 353 888 353 1747 
Q 353 2609 779 3096 
Q 1206 3584 1959 3584 
z
" transform="scale(0.015625)"/>
       <path id="DejaVuSans-63" d="M 3122 3366 
L 3122 2828 
Q 2878 2963 2633 3030 
Q 2388 3097 2138 3097 
Q 1578 3097 1268 2742 
Q 959 2388 959 1747 
Q 959 1106 1268 751 
Q 1578 397 2138 397 
Q 2388 397 2633 464 
Q 2878 531 3122 666 
L 3122 134 
Q 2881 22 2623 -34 
Q 2366 -91 2075 -91 
Q 1284 -91 818 406 
Q 353 903 353 1747 
Q 353 2603 823 3093 
Q 1294 3584 2113 3584 
Q 2378 3584 2631 3529 
Q 2884 3475 3122 3366 
z
" transform="scale(0.015625)"/>
       <path id="DejaVuSans-68" d="M 3513 2113 
L 3513 0 
L 2938 0 
L 2938 2094 
Q 2938 2591 2744 2837 
Q 2550 3084 2163 3084 
Q 1697 3084 1428 2787 
Q 1159 2491 1159 1978 
L 1159 0 
L 581 0 
L 581 4863 
L 1159 4863 
L 1159 2956 
Q 1366 3272 1645 3428 
Q 1925 3584 2291 3584 
Q 2894 3584 3203 3211 
Q 3513 2838 3513 2113 
z
" transform="scale(0.015625)"/>
      </defs>
      <use xlink:href="#DejaVuSans-65"/>
      <use xlink:href="#DejaVuSans-70" x="61.523438"/>
      <use xlink:href="#DejaVuSans-6f" x="125"/>
      <use xlink:href="#DejaVuSans-63" x="186.181641"/>
      <use xlink:href="#DejaVuSans-68" x="241.162109"/>
     </g>
    </g>
   </g>
   <g id="matplotlib.axis_2">
    <g id="ytick_1">
     <g id="line2d_7">
      <defs>
       <path id="m6998bd7580" d="M 0 0 
L -3.5 0 
" style="stroke: #000000; stroke-width: 0.8"/>
      </defs>
      <g>
       <use xlink:href="#m6998bd7580" x="57.6" y="292.745064" style="stroke: #000000; stroke-width: 0.8"/>
      </g>
     </g>
     <g id="text_8">
      <!-- 0.6 -->
      <g transform="translate(34.696875 296.544282) scale(0.1 -0.1)">
       <defs>
        <path id="DejaVuSans-2e" d="M 684 794 
L 1344 794 
L 1344 0 
L 684 0 
L 684 794 
z
" transform="scale(0.015625)"/>
        <path id="DejaVuSans-36" d="M 2113 2584 
Q 1688 2584 1439 2293 
Q 1191 2003 1191 1497 
Q 1191 994 1439 701 
Q 1688 409 2113 409 
Q 2538 409 2786 701 
Q 3034 994 3034 1497 
Q 3034 2003 2786 2293 
Q 2538 2584 2113 2584 
z
M 3366 4563 
L 3366 3988 
Q 3128 4100 2886 4159 
Q 2644 4219 2406 4219 
Q 1781 4219 1451 3797 
Q 1122 3375 1075 2522 
Q 1259 2794 1537 2939 
Q 1816 3084 2150 3084 
Q 2853 3084 3261 2657 
Q 3669 2231 3669 1497 
Q 3669 778 3244 343 
Q 2819 -91 2113 -91 
Q 1303 -91 875 529 
Q 447 1150 447 2328 
Q 447 3434 972 4092 
Q 1497 4750 2381 4750 
Q 2619 4750 2861 4703 
Q 3103 4656 3366 4563 
z
" transform="scale(0.015625)"/>
       </defs>
       <use xlink:href="#DejaVuSans-30"/>
       <use xlink:href="#DejaVuSans-2e" x="63.623047"/>
       <use xlink:href="#DejaVuSans-36" x="95.410156"/>
      </g>
     </g>
    </g>
    <g id="ytick_2">
     <g id="line2d_8">
      <g>
       <use xlink:href="#m6998bd7580" x="57.6" y="256.978832" style="stroke: #000000; stroke-width: 0.8"/>
      </g>
     </g>
     <g id="text_9">
      <!-- 0.7 -->
      <g transform="translate(34.696875 260.778051) scale(0.1 -0.1)">
       <defs>
        <path id="DejaVuSans-37" d="M 525 4666 
L 3525 4666 
L 3525 4397 
L 1831 0 
L 1172 0 
L 2766 4134 
L 525 4134 
L 525 4666 
z
" transform="scale(0.015625)"/>
       </defs>
       <use xlink:href="#DejaVuSans-30"/>
       <use xlink:href="#DejaVuSans-2e" x="63.623047"/>
       <use xlink:href="#DejaVuSans-37" x="95.410156"/>
      </g>
     </g>
    </g>
    <g id="ytick_3">
     <g id="line2d_9">
      <g>
       <use xlink:href="#m6998bd7580" x="57.6" y="221.2126" style="stroke: #000000; stroke-width: 0.8"/>
      </g>
     </g>
     <g id="text_10">
      <!-- 0.8 -->
      <g transform="translate(34.696875 225.011819) scale(0.1 -0.1)">
       <defs>
        <path id="DejaVuSans-38" d="M 2034 2216 
Q 1584 2216 1326 1975 
Q 1069 1734 1069 1313 
Q 1069 891 1326 650 
Q 1584 409 2034 409 
Q 2484 409 2743 651 
Q 3003 894 3003 1313 
Q 3003 1734 2745 1975 
Q 2488 2216 2034 2216 
z
M 1403 2484 
Q 997 2584 770 2862 
Q 544 3141 544 3541 
Q 544 4100 942 4425 
Q 1341 4750 2034 4750 
Q 2731 4750 3128 4425 
Q 3525 4100 3525 3541 
Q 3525 3141 3298 2862 
Q 3072 2584 2669 2484 
Q 3125 2378 3379 2068 
Q 3634 1759 3634 1313 
Q 3634 634 3220 271 
Q 2806 -91 2034 -91 
Q 1263 -91 848 271 
Q 434 634 434 1313 
Q 434 1759 690 2068 
Q 947 2378 1403 2484 
z
M 1172 3481 
Q 1172 3119 1398 2916 
Q 1625 2713 2034 2713 
Q 2441 2713 2670 2916 
Q 2900 3119 2900 3481 
Q 2900 3844 2670 4047 
Q 2441 4250 2034 4250 
Q 1625 4250 1398 4047 
Q 1172 3844 1172 3481 
z
" transform="scale(0.015625)"/>
       </defs>
       <use xlink:href="#DejaVuSans-30"/>
       <use xlink:href="#DejaVuSans-2e" x="63.623047"/>
       <use xlink:href="#DejaVuSans-38" x="95.410156"/>
      </g>
     </g>
    </g>
    <g id="ytick_4">
     <g id="line2d_10">
      <g>
       <use xlink:href="#m6998bd7580" x="57.6" y="185.446369" style="stroke: #000000; stroke-width: 0.8"/>
      </g>
     </g>
     <g id="text_11">
      <!-- 0.9 -->
      <g transform="translate(34.696875 189.245588) scale(0.1 -0.1)">
       <defs>
        <path id="DejaVuSans-39" d="M 703 97 
L 703 672 
Q 941 559 1184 500 
Q 1428 441 1663 441 
Q 2288 441 2617 861 
Q 2947 1281 2994 2138 
Q 2813 1869 2534 1725 
Q 2256 1581 1919 1581 
Q 1219 1581 811 2004 
Q 403 2428 403 3163 
Q 403 3881 828 4315 
Q 1253 4750 1959 4750 
Q 2769 4750 3195 4129 
Q 3622 3509 3622 2328 
Q 3622 1225 3098 567 
Q 2575 -91 1691 -91 
Q 1453 -91 1209 -44 
Q 966 3 703 97 
z
M 1959 2075 
Q 2384 2075 2632 2365 
Q 2881 2656 2881 3163 
Q 2881 3666 2632 3958 
Q 2384 4250 1959 4250 
Q 1534 4250 1286 3958 
Q 1038 3666 1038 3163 
Q 1038 2656 1286 2365 
Q 1534 2075 1959 2075 
z
" transform="scale(0.015625)"/>
       </defs>
       <use xlink:href="#DejaVuSans-30"/>
       <use xlink:href="#DejaVuSans-2e" x="63.623047"/>
       <use xlink:href="#DejaVuSans-39" x="95.410156"/>
      </g>
     </g>
    </g>
    <g id="ytick_5">
     <g id="line2d_11">
      <g>
       <use xlink:href="#m6998bd7580" x="57.6" y="149.680137" style="stroke: #000000; stroke-width: 0.8"/>
      </g>
     </g>
     <g id="text_12">
      <!-- 1.0 -->
      <g transform="translate(34.696875 153.479356) scale(0.1 -0.1)">
       <use xlink:href="#DejaVuSans-31"/>
       <use xlink:href="#DejaVuSans-2e" x="63.623047"/>
       <use xlink:href="#DejaVuSans-30" x="95.410156"/>
      </g>
     </g>
    </g>
    <g id="ytick_6">
     <g id="line2d_12">
      <g>
       <use xlink:href="#m6998bd7580" x="57.6" y="113.913906" style="stroke: #000000; stroke-width: 0.8"/>
      </g>
     </g>
     <g id="text_13">
      <!-- 1.1 -->
      <g transform="translate(34.696875 117.713124) scale(0.1 -0.1)">
       <use xlink:href="#DejaVuSans-31"/>
       <use xlink:href="#DejaVuSans-2e" x="63.623047"/>
       <use xlink:href="#DejaVuSans-31" x="95.410156"/>
      </g>
     </g>
    </g>
    <g id="ytick_7">
     <g id="line2d_13">
      <g>
       <use xlink:href="#m6998bd7580" x="57.6" y="78.147674" style="stroke: #000000; stroke-width: 0.8"/>
      </g>
     </g>
     <g id="text_14">
      <!-- 1.2 -->
      <g transform="translate(34.696875 81.946893) scale(0.1 -0.1)">
       <use xlink:href="#DejaVuSans-31"/>
       <use xlink:href="#DejaVuSans-2e" x="63.623047"/>
       <use xlink:href="#DejaVuSans-32" x="95.410156"/>
      </g>
     </g>
    </g>
    <g id="ytick_8">
     <g id="line2d_14">
      <g>
       <use xlink:href="#m6998bd7580" x="57.6" y="42.381442" style="stroke: #000000; stroke-width: 0.8"/>
      </g>
     </g>
     <g id="text_15">
      <!-- 1.3 -->
      <g transform="translate(34.696875 46.180661) scale(0.1 -0.1)">
       <use xlink:href="#DejaVuSans-31"/>
       <use xlink:href="#DejaVuSans-2e" x="63.623047"/>
       <use xlink:href="#DejaVuSans-33" x="95.410156"/>
      </g>
     </g>
    </g>
    <g id="text_16">
     <!-- loss -->
     <g transform="translate(28.617188 184.185812) rotate(-90) scale(0.1 -0.1)">
      <defs>
       <path id="DejaVuSans-6c" d="M 603 4863 
L 1178 4863 
L 1178 0 
L 603 0 
L 603 4863 
z
" transform="scale(0.015625)"/>
       <path id="DejaVuSans-73" d="M 2834 3397 
L 2834 2853 
Q 2591 2978 2328 3040 
Q 2066 3103 1784 3103 
Q 1356 3103 1142 2972 
Q 928 2841 928 2578 
Q 928 2378 1081 2264 
Q 1234 2150 1697 2047 
L 1894 2003 
Q 2506 1872 2764 1633 
Q 3022 1394 3022 966 
Q 3022 478 2636 193 
Q 2250 -91 1575 -91 
Q 1294 -91 989 -36 
Q 684 19 347 128 
L 347 722 
Q 666 556 975 473 
Q 1284 391 1588 391 
Q 1994 391 2212 530 
Q 2431 669 2431 922 
Q 2431 1156 2273 1281 
Q 2116 1406 1581 1522 
L 1381 1569 
Q 847 1681 609 1914 
Q 372 2147 372 2553 
Q 372 3047 722 3315 
Q 1072 3584 1716 3584 
Q 2034 3584 2315 3537 
Q 2597 3491 2834 3397 
z
" transform="scale(0.015625)"/>
      </defs>
      <use xlink:href="#DejaVuSans-6c"/>
      <use xlink:href="#DejaVuSans-6f" x="27.783203"/>
      <use xlink:href="#DejaVuSans-73" x="88.964844"/>
      <use xlink:href="#DejaVuSans-73" x="141.064453"/>
     </g>
    </g>
   </g>
   <g id="line2d_15">
    <path d="M 73.832727 181.837098 
L 74.483338 151.983498 
L 75.133948 200.548457 
L 75.784558 233.68201 
L 76.435169 230.434141 
L 77.085779 235.863707 
L 77.736389 248.875353 
L 78.386999 250.42509 
L 79.03761 247.174086 
L 79.68822 249.572505 
L 80.33883 254.757999 
L 80.989441 261.662325 
L 81.640051 265.438634 
L 82.290661 266.446927 
L 82.941272 266.078696 
L 84.242492 271.308488 
L 84.893103 273.545144 
L 85.543713 274.132486 
L 86.194323 272.747327 
L 87.495544 277.030329 
L 88.146154 278.610274 
L 88.796764 277.956036 
L 89.447375 278.333136 
L 90.748595 281.259397 
L 92.049816 280.61748 
L 92.700426 281.109593 
L 93.351037 282.437214 
L 94.001647 283.132191 
L 94.652257 283.507181 
L 95.302868 283.145089 
L 95.953478 283.373323 
L 96.604088 284.05568 
L 97.254698 285.243154 
L 97.905309 285.250083 
L 98.555919 283.667047 
L 99.206529 284.413509 
L 100.50775 286.625925 
L 101.15836 286.74955 
L 101.808971 286.740277 
L 102.459581 287.240235 
L 103.110191 286.835421 
L 103.760802 285.46964 
L 104.411412 285.784192 
L 105.062022 286.966933 
L 105.712633 286.618464 
L 107.013853 287.027456 
L 107.664463 287.667752 
L 108.315074 286.826126 
L 108.965684 288.195722 
L 109.616294 288.348575 
L 110.266905 288.362602 
L 110.917515 287.509549 
L 111.568125 288.235779 
L 112.218736 288.415237 
L 112.869346 288.821352 
L 113.519956 288.773471 
L 114.170567 289.844696 
L 114.821177 289.006928 
L 115.471787 289.074038 
L 116.122398 289.772704 
L 117.423618 288.724907 
L 118.074228 289.32067 
L 118.724839 289.381981 
L 119.375449 290.168756 
L 120.026059 290.023897 
L 120.67667 290.720495 
L 121.32728 290.439903 
L 121.97789 290.874712 
L 122.628501 290.658054 
L 123.279111 289.776946 
L 123.929721 290.393238 
L 124.580332 290.420781 
L 125.230942 291.12273 
L 126.532163 289.967916 
L 127.182773 289.955125 
L 127.833383 289.621578 
L 128.483993 289.413234 
L 129.785214 290.60883 
L 130.435824 290.561844 
L 131.086435 290.791741 
L 132.387655 289.677475 
L 133.038266 290.840773 
L 133.688876 290.946384 
L 134.339486 290.734885 
L 134.990097 291.248252 
L 135.640707 290.798542 
L 136.291317 291.144943 
L 136.941927 291.671293 
L 137.592538 291.139358 
L 138.243148 291.805492 
L 138.893758 291.249318 
L 139.544369 291.194082 
L 140.194979 291.545558 
L 140.845589 291.71506 
L 142.14681 291.109491 
L 142.79742 290.999318 
L 143.448031 289.973885 
L 144.098641 290.108489 
L 144.749251 290.373454 
L 145.399862 290.016287 
L 146.050472 290.584122 
L 147.351692 290.502132 
L 148.002303 290.17724 
L 148.652913 290.440778 
L 149.303523 290.998188 
L 149.954134 291.177603 
L 151.255354 290.298968 
L 151.905965 290.208791 
L 152.556575 290.315362 
L 153.207185 291.425322 
L 153.857796 290.391042 
L 154.508406 290.898162 
L 155.159016 290.79803 
L 155.809627 291.261789 
L 156.460237 291.189733 
L 157.761457 291.705168 
L 158.412068 291.485909 
L 159.713288 292.298926 
L 160.363899 292.312357 
L 161.014509 291.899762 
L 161.665119 292.202866 
L 162.31573 291.895818 
L 162.96634 292.383006 
L 163.61695 292.093673 
L 164.918171 292.069413 
L 165.568781 292.266586 
L 166.219392 291.593567 
L 166.870002 291.778183 
L 168.171222 292.572099 
L 168.821833 292.610771 
L 169.472443 292.122155 
L 170.123053 292.269656 
L 170.773664 292.612135 
L 171.424274 292.487999 
L 172.074884 292.100325 
L 172.725495 292.128316 
L 174.026715 292.43984 
L 174.677326 292.522151 
L 175.327936 292.453996 
L 175.978546 292.529932 
L 176.629156 292.308882 
L 177.279767 290.685086 
L 177.930377 292.410272 
L 178.580987 292.289568 
L 179.231598 292.6714 
L 179.882208 292.872389 
L 180.532818 292.151382 
L 181.183429 292.440075 
L 182.484649 292.445383 
L 183.13526 292.37418 
L 183.78587 292.785411 
L 185.087091 293.051442 
L 186.388311 292.790847 
L 187.038921 292.341691 
L 187.689532 292.562378 
L 188.340142 293.00403 
L 189.641363 292.067281 
L 190.291973 292.556708 
L 190.942583 292.378998 
L 191.593194 293.037116 
L 192.243804 292.828431 
L 192.894414 292.791764 
L 193.545025 293.228875 
L 194.195635 292.90377 
L 194.846245 292.956171 
L 196.147466 292.756738 
L 196.798076 293.028717 
L 198.749907 292.542531 
L 199.400517 292.695319 
L 200.051128 293.327877 
L 200.701738 292.815022 
L 201.352348 293.497145 
L 202.653569 293.00985 
L 203.304179 293.157053 
L 203.95479 293.148718 
L 205.25601 293.404687 
L 205.906621 293.126504 
L 206.557231 293.525157 
L 207.207841 293.072803 
L 208.509062 293.332524 
L 209.810282 293.034814 
L 210.460893 293.46732 
L 211.111503 293.028248 
L 211.762113 293.162063 
L 212.412724 293.449839 
L 213.063334 292.850602 
L 213.713944 293.613841 
L 215.015165 292.892642 
L 215.665775 293.576619 
L 216.316385 293.5776 
L 218.268216 293.243584 
L 218.918827 293.431505 
L 219.569437 293.903856 
L 220.870658 293.681037 
L 221.521268 294.090604 
L 222.171878 293.810183 
L 222.822489 293.813381 
L 223.473099 293.398697 
L 224.123709 293.710904 
L 224.77432 293.400722 
L 225.42493 293.398121 
L 226.07554 293.602308 
L 226.72615 293.503732 
L 227.376761 293.741495 
L 228.027371 294.190396 
L 228.677981 293.53846 
L 229.979202 293.949712 
L 230.629812 294.040123 
L 231.280423 293.866805 
L 231.931033 293.201672 
L 232.581643 293.761343 
L 233.232254 293.967321 
L 233.882864 292.967661 
L 234.533474 293.918779 
L 235.184085 293.906819 
L 235.834695 293.461884 
L 236.485305 293.587065 
L 237.135915 293.427903 
L 237.786526 293.992114 
L 238.437136 293.916711 
L 239.738357 294.101242 
L 240.388967 293.682785 
L 241.039577 294.076342 
L 241.690188 293.698582 
L 242.340798 294.055259 
L 242.991408 294.589667 
L 243.642019 294.089432 
L 244.292629 293.855634 
L 244.943239 294.400786 
L 245.59385 293.89309 
L 246.24446 293.960968 
L 246.89507 293.899464 
L 247.54568 294.164515 
L 248.196291 293.808819 
L 248.846901 293.621303 
L 249.497511 294.157651 
L 250.148122 293.651724 
L 250.798732 293.973993 
L 251.449342 293.938882 
L 252.099953 293.679097 
L 252.750563 293.818433 
L 253.401173 293.296305 
L 254.051784 293.640361 
L 254.702394 293.851157 
L 255.353004 293.656691 
L 256.003615 293.610238 
L 256.654225 294.089197 
L 257.304835 293.625886 
L 257.955445 294.060929 
L 258.606056 294.087257 
L 259.256666 294.419951 
L 259.907276 293.812741 
L 261.208497 294.485313 
L 262.509718 293.996804 
L 263.160328 294.237594 
L 264.461549 293.96828 
L 265.112159 294.545474 
L 265.762769 294.139594 
L 266.413379 294.162085 
L 267.7146 294.432636 
L 268.36521 294.225358 
L 269.666431 294.683403 
L 270.967652 293.807731 
L 271.618262 293.654836 
L 272.919483 293.72476 
L 273.570093 294.046902 
L 274.220703 293.56967 
L 274.871314 293.735334 
L 275.521924 294.215786 
L 276.172534 293.752432 
L 276.823144 293.901511 
L 277.473755 293.869256 
L 278.124365 294.209561 
L 278.774975 294.693189 
L 279.425586 294.060247 
L 280.076196 294.141832 
L 280.726806 294.652577 
L 281.377417 294.298629 
L 282.028027 294.486912 
L 282.678637 293.976445 
L 283.329248 293.679267 
L 283.979858 294.042169 
L 284.630468 294.248786 
L 285.281079 293.649443 
L 285.931689 294.387313 
L 286.582299 293.951076 
L 288.53413 294.323507 
L 289.18474 294.315747 
L 290.485961 293.964443 
L 291.787182 294.351157 
L 293.088402 294.270936 
L 293.739013 294.433403 
L 294.389623 293.901468 
L 295.690844 294.111582 
L 296.341454 294.193082 
L 296.992064 293.649613 
L 297.642674 294.21116 
L 298.293285 294.098492 
L 298.943895 293.578687 
L 299.594505 294.545367 
L 300.245116 294.800654 
L 301.546336 294.146032 
L 302.847557 294.480559 
L 303.498167 293.853694 
L 304.148778 294.860473 
L 304.799388 294.500897 
L 306.100608 294.553916 
L 307.401829 293.966724 
L 308.052439 294.33504 
L 308.70305 293.967107 
L 309.35366 294.527524 
L 310.00427 294.67332 
L 310.654881 294.54833 
L 311.305491 294.088451 
L 311.956101 294.587684 
L 313.257322 294.512281 
L 313.907932 294.093632 
L 314.558543 294.591159 
L 315.209153 294.470945 
L 315.859763 294.860665 
L 316.510373 294.945171 
L 317.160984 294.863906 
L 317.811594 294.996655 
L 318.462204 294.675771 
L 319.112815 294.872795 
L 319.763425 294.449754 
L 320.414035 294.587215 
L 321.064646 294.439372 
L 321.715256 295.08875 
L 322.365866 294.632687 
L 323.016477 294.935706 
L 323.667087 294.800612 
L 324.317697 295.036542 
L 324.968308 294.732841 
L 325.618918 295.096894 
L 326.269528 294.903984 
L 326.920138 294.932935 
L 328.221359 294.530402 
L 328.871969 294.871602 
L 329.52258 294.453592 
L 330.8238 294.722373 
L 331.474411 294.218813 
L 332.125021 293.928265 
L 332.775631 294.357617 
L 333.426242 294.26405 
L 334.076852 294.607958 
L 334.727462 294.051784 
L 335.378073 294.651511 
L 336.028683 294.872241 
L 336.679293 294.527652 
L 337.329903 294.8774 
L 337.980514 294.971627 
L 338.631124 294.588643 
L 339.281734 294.644732 
L 339.932345 294.490281 
L 340.582955 294.531851 
L 341.233565 295.083868 
L 341.884176 294.718515 
L 342.534786 295.321504 
L 343.185396 295.012089 
L 343.836007 295.262324 
L 345.137227 294.948561 
L 345.787837 295.079967 
L 346.438448 294.51582 
L 347.089058 295.334913 
L 347.739668 295.053383 
L 348.390279 295.013774 
L 349.040889 295.212013 
L 349.691499 294.634094 
L 350.34211 294.893581 
L 350.99272 294.923384 
L 351.64333 294.279911 
L 352.293941 294.624394 
L 352.944551 294.771491 
L 353.595161 294.185578 
L 354.245772 293.847448 
L 354.896382 294.752517 
L 355.546992 294.884329 
L 356.197602 294.651596 
L 356.848213 294.137334 
L 357.498823 294.797776 
L 358.800044 294.577302 
L 359.450654 294.871751 
L 360.101264 294.847022 
L 360.751875 295.192165 
L 361.402485 295.204679 
L 362.053095 294.709348 
L 363.354316 295.488 
L 364.004926 294.56029 
L 365.306147 295.372625 
L 365.956757 294.69677 
L 366.607367 295.34084 
L 367.257978 295.007399 
L 367.908588 295.008657 
L 368.559198 294.490217 
L 369.209809 295.12254 
L 369.860419 295.237979 
L 370.511029 294.925366 
L 371.16164 294.77439 
L 372.46286 294.909165 
L 373.113471 294.991091 
L 373.764081 294.699882 
L 375.715912 294.849814 
L 376.366522 295.019316 
L 377.017132 294.839837 
L 377.667743 295.132581 
L 378.318353 294.901298 
L 378.968963 295.122433 
L 381.571405 294.98461 
L 382.222015 294.67639 
L 382.872625 295.150659 
L 384.173846 295.084614 
L 384.824456 295.18464 
L 385.475066 294.699477 
L 386.125677 294.935557 
L 386.776287 294.942656 
L 387.426897 295.175985 
L 388.077508 294.873328 
L 388.728118 295.157971 
L 389.378728 295.310695 
L 390.029339 295.055835 
L 390.679949 295.41183 
L 391.330559 295.311655 
L 391.98117 294.786797 
L 392.63178 295.02407 
L 393.933001 295.093781 
L 394.583611 294.931954 
L 395.884831 294.888401 
L 396.535442 294.888209 
L 397.186052 294.762793 
L 397.836662 294.854291 
L 398.487273 295.261535 
L 398.487273 295.261535 
" clip-path="url(#p9a84226eda)" style="fill: none; stroke: #1f77b4; stroke-width: 1.5; stroke-linecap: square"/>
   </g>
   <g id="line2d_16">
    <path d="M 73.832727 53.568 
L 74.483338 139.096308 
L 75.133948 251.339987 
L 75.784558 244.922977 
L 76.435169 234.219595 
L 77.085779 242.334653 
L 77.736389 237.691243 
L 78.386999 224.31968 
L 79.03761 224.575926 
L 79.68822 236.225757 
L 80.33883 253.213592 
L 80.989441 265.189913 
L 81.640051 268.777362 
L 82.290661 267.339654 
L 82.941272 267.912946 
L 83.591882 270.942623 
L 84.242492 272.976904 
L 85.543713 269.396319 
L 86.194323 271.366581 
L 86.844934 276.177916 
L 87.495544 279.151291 
L 88.146154 279.398754 
L 89.447375 277.922779 
L 90.097985 275.929152 
L 90.748595 271.857563 
L 91.399206 268.496237 
L 92.049816 268.280325 
L 92.700426 271.229056 
L 93.351037 275.094731 
L 94.001647 277.557212 
L 94.652257 278.448404 
L 95.302868 278.422225 
L 95.953478 277.535809 
L 96.604088 275.472449 
L 97.905309 269.400881 
L 98.555919 269.9995 
L 99.85714 277.315334 
L 100.50775 279.237609 
L 101.15836 279.651845 
L 101.808971 278.792908 
L 102.459581 276.37931 
L 103.110191 274.87867 
L 103.760802 276.021354 
L 104.411412 278.538133 
L 105.062022 280.171629 
L 105.712633 280.647518 
L 106.363243 279.979572 
L 107.013853 277.90372 
L 107.664463 276.304547 
L 108.315074 277.695589 
L 108.965684 278.668217 
L 109.616294 278.483451 
L 110.266905 277.200791 
L 110.917515 275.615154 
L 111.568125 274.566612 
L 112.218736 273.873915 
L 112.869346 274.987692 
L 113.519956 277.735881 
L 114.170567 278.951325 
L 114.821177 278.405959 
L 115.471787 276.210512 
L 116.122398 272.678234 
L 116.773008 270.511204 
L 117.423618 271.625897 
L 118.074228 274.550581 
L 118.724839 276.402163 
L 119.375449 276.489824 
L 120.026059 274.867712 
L 120.67667 272.902673 
L 121.32728 273.130524 
L 121.97789 272.794739 
L 122.628501 272.1337 
L 123.279111 271.789856 
L 123.929721 272.552413 
L 124.580332 274.74914 
L 125.230942 275.575737 
L 125.881552 275.24575 
L 126.532163 276.080811 
L 127.182773 275.406533 
L 127.833383 274.211747 
L 128.483993 273.599314 
L 129.134604 275.342024 
L 129.785214 275.25609 
L 130.435824 273.712131 
L 131.086435 271.358245 
L 131.737045 272.806911 
L 132.387655 275.257497 
L 133.038266 276.479847 
L 133.688876 275.915039 
L 134.339486 273.800303 
L 134.990097 272.193711 
L 135.640707 272.841746 
L 136.291317 273.984622 
L 136.941927 273.751101 
L 137.592538 272.549024 
L 138.243148 270.597117 
L 138.893758 270.622677 
L 139.544369 272.674674 
L 140.194979 273.803991 
L 140.845589 273.556038 
L 141.4962 273.901309 
L 142.14681 274.630631 
L 143.448031 273.391567 
L 144.098641 273.873319 
L 144.749251 275.554248 
L 145.399862 276.248373 
L 146.050472 274.815184 
L 146.701082 275.427148 
L 147.351692 275.283569 
L 148.002303 274.973195 
L 148.652913 276.585309 
L 149.303523 276.701665 
L 149.954134 274.858695 
L 150.604744 275.802479 
L 153.857796 276.915807 
L 154.508406 276.497691 
L 155.159016 275.371955 
L 155.809627 274.506622 
L 156.460237 273.948295 
L 157.761457 271.985068 
L 158.412068 273.6185 
L 159.062678 274.430495 
L 159.713288 274.053565 
L 160.363899 272.619545 
L 161.014509 272.805931 
L 161.665119 272.686633 
L 162.31573 271.964731 
L 163.61695 272.363703 
L 164.267561 274.044846 
L 164.918171 273.409389 
L 165.568781 270.517407 
L 166.219392 271.334262 
L 166.870002 271.544397 
L 167.520612 270.95729 
L 168.171222 271.458633 
L 168.821833 272.948124 
L 169.472443 273.22829 
L 170.123053 272.866624 
L 170.773664 272.948103 
L 171.424274 272.550068 
L 172.074884 271.150285 
L 172.725495 271.450426 
L 173.376105 273.00999 
L 174.026715 273.377326 
L 174.677326 274.276789 
L 175.327936 272.417425 
L 175.978546 269.05141 
L 176.629156 267.763334 
L 177.279767 272.857948 
L 177.930377 275.345371 
L 178.580987 274.488225 
L 179.231598 270.47912 
L 179.882208 268.814009 
L 181.183429 272.903526 
L 181.834039 273.317443 
L 182.484649 271.856945 
L 183.13526 269.966478 
L 183.78587 269.885404 
L 184.43648 272.370589 
L 185.087091 272.961725 
L 186.388311 270.123189 
L 187.038921 272.620866 
L 187.689532 273.867264 
L 188.340142 272.387132 
L 188.990752 269.592981 
L 189.641363 268.117816 
L 190.291973 269.972809 
L 190.942583 274.103215 
L 191.593194 274.795976 
L 192.243804 272.269732 
L 192.894414 271.096008 
L 193.545025 271.330084 
L 194.195635 271.430109 
L 194.846245 271.019369 
L 195.496856 270.338504 
L 196.147466 271.075244 
L 196.798076 272.515639 
L 197.448686 274.343047 
L 198.099297 274.620206 
L 198.749907 272.876985 
L 200.051128 271.27811 
L 200.701738 271.292755 
L 201.352348 270.224558 
L 202.002959 269.391352 
L 202.653569 270.111421 
L 203.304179 272.310834 
L 203.95479 273.260651 
L 204.6054 272.26242 
L 205.25601 269.829976 
L 205.906621 267.866003 
L 206.557231 268.562943 
L 207.207841 270.66169 
L 207.858451 272.136514 
L 208.509062 271.857947 
L 209.159672 270.55431 
L 209.810282 271.178638 
L 210.460893 271.056314 
L 211.111503 270.781371 
L 212.412724 268.371248 
L 213.063334 270.912244 
L 213.713944 271.872955 
L 214.364555 270.993084 
L 215.015165 271.324456 
L 215.665775 270.501355 
L 216.316385 269.410005 
L 216.966996 270.631866 
L 217.617606 270.765702 
L 218.268216 269.923734 
L 218.918827 270.212214 
L 219.569437 269.971317 
L 220.870658 269.788342 
L 221.521268 271.434693 
L 222.171878 271.526426 
L 222.822489 269.568891 
L 223.473099 270.438338 
L 224.123709 269.926762 
L 224.77432 269.193901 
L 225.42493 269.437634 
L 226.07554 272.085371 
L 226.72615 272.121228 
L 227.376761 271.022012 
L 228.027371 269.444051 
L 228.677981 268.748263 
L 229.328592 269.895445 
L 229.979202 271.774742 
L 230.629812 271.004553 
L 231.280423 268.80563 
L 231.931033 271.058531 
L 232.581643 271.392888 
L 233.882864 267.067952 
L 234.533474 268.783992 
L 235.184085 271.746985 
L 235.834695 271.784974 
L 236.485305 269.059788 
L 237.135915 269.566524 
L 237.786526 269.16947 
L 238.437136 268.490226 
L 239.087746 269.575457 
L 239.738357 269.306633 
L 240.388967 269.310278 
L 241.039577 269.503422 
L 241.690188 268.618797 
L 242.340798 269.450105 
L 242.991408 268.866004 
L 243.642019 267.921836 
L 244.292629 269.171474 
L 245.59385 267.562878 
L 246.24446 267.199443 
L 246.89507 267.668063 
L 248.196291 271.290048 
L 248.846901 269.717629 
L 249.497511 266.571639 
L 250.148122 267.801047 
L 250.798732 271.00871 
L 251.449342 270.768495 
L 252.099953 268.195883 
L 252.750563 269.117667 
L 253.401173 270.620588 
L 254.051784 270.702643 
L 254.702394 270.419258 
L 255.353004 270.299491 
L 256.003615 269.340081 
L 256.654225 268.092362 
L 257.304835 270.246984 
L 257.955445 271.775211 
L 259.907276 269.494511 
L 260.557887 268.437292 
L 261.208497 267.916698 
L 261.859107 270.433435 
L 262.509718 271.346819 
L 263.160328 269.338099 
L 263.810938 268.767876 
L 264.461549 270.301005 
L 265.112159 269.788235 
L 265.762769 267.365556 
L 266.413379 267.779728 
L 268.36521 271.167958 
L 269.015821 269.224898 
L 269.666431 267.932154 
L 270.317041 270.141331 
L 270.967652 271.002847 
L 271.618262 269.833238 
L 272.268872 269.681473 
L 272.919483 271.793822 
L 273.570093 270.900157 
L 274.220703 268.949295 
L 274.871314 270.668128 
L 275.521924 271.769838 
L 276.823144 270.771927 
L 277.473755 269.503913 
L 278.124365 269.233148 
L 278.774975 269.589271 
L 279.425586 270.340742 
L 280.726806 269.734726 
L 281.377417 269.700659 
L 282.028027 269.932582 
L 282.678637 271.930685 
L 283.329248 271.263784 
L 283.979858 268.702237 
L 284.630468 268.802902 
L 285.281079 270.514274 
L 285.931689 270.910582 
L 286.582299 270.051133 
L 287.232909 270.979504 
L 287.88352 272.58017 
L 288.53413 271.166998 
L 289.18474 268.265573 
L 289.835351 269.310129 
L 290.485961 273.455543 
L 291.136571 272.762996 
L 291.787182 268.435907 
L 292.437792 267.761522 
L 293.088402 271.014125 
L 293.739013 271.222853 
L 295.040233 266.117921 
L 296.341454 275.548556 
L 296.992064 273.330191 
L 297.642674 265.025911 
L 298.293285 263.871438 
L 298.943895 270.477393 
L 299.594505 274.207292 
L 300.245116 272.619246 
L 300.895726 267.608499 
L 301.546336 267.469994 
L 302.196947 270.915165 
L 302.847557 271.64956 
L 303.498167 269.195628 
L 304.148778 265.398108 
L 304.799388 265.832831 
L 305.449998 270.845859 
L 306.100608 274.818318 
L 306.751219 274.062817 
L 307.401829 269.188614 
L 308.052439 266.991589 
L 308.70305 268.929021 
L 310.00427 271.544354 
L 310.654881 269.468886 
L 311.305491 269.118733 
L 312.606712 271.753359 
L 313.257322 272.007687 
L 313.907932 269.933839 
L 314.558543 269.180151 
L 315.859763 270.89293 
L 316.510373 272.159132 
L 317.811594 269.151734 
L 318.462204 269.66574 
L 319.112815 268.301814 
L 319.763425 267.711851 
L 320.414035 268.705925 
L 321.064646 270.162606 
L 321.715256 269.731678 
L 322.365866 269.729226 
L 323.016477 269.586116 
L 324.317697 266.930491 
L 324.968308 268.702663 
L 325.618918 269.476348 
L 326.269528 268.981571 
L 326.920138 269.589761 
L 327.570749 269.974259 
L 328.871969 267.745256 
L 330.17319 271.653781 
L 330.8238 270.03201 
L 331.474411 268.014678 
L 332.125021 271.342384 
L 332.775631 272.666424 
L 334.076852 268.670536 
L 335.378073 271.990121 
L 336.679293 268.831895 
L 337.980514 273.261482 
L 339.932345 267.784717 
L 340.582955 267.392928 
L 341.233565 269.991079 
L 341.884176 271.891523 
L 343.185396 268.244489 
L 345.137227 268.266319 
L 345.787837 269.030816 
L 346.438448 271.225176 
L 347.089058 269.322131 
L 347.739668 266.625191 
L 348.390279 267.703643 
L 349.040889 270.789323 
L 349.691499 270.810684 
L 350.34211 266.650709 
L 350.99272 267.536188 
L 351.64333 272.823092 
L 352.293941 272.883444 
L 352.944551 267.762801 
L 353.595161 266.602402 
L 354.245772 272.008966 
L 354.896382 273.597353 
L 355.546992 268.880948 
L 356.197602 267.682751 
L 356.848213 271.399539 
L 357.498823 272.024614 
L 358.149433 269.320106 
L 358.800044 268.456713 
L 359.450654 270.063561 
L 360.101264 270.32194 
L 360.751875 268.408598 
L 361.402485 268.938891 
L 362.053095 270.622336 
L 362.703706 269.660752 
L 363.354316 267.448335 
L 364.004926 268.597969 
L 364.655537 270.688594 
L 365.956757 268.102381 
L 366.607367 268.866388 
L 367.257978 271.73833 
L 367.908588 270.74383 
L 368.559198 268.365236 
L 369.209809 269.146425 
L 369.860419 271.67704 
L 370.511029 270.580361 
L 371.16164 267.137769 
L 371.81225 269.893356 
L 372.46286 270.633528 
L 373.113471 269.579358 
L 373.764081 268.800514 
L 374.414691 271.129265 
L 375.065302 271.067229 
L 375.715912 269.15943 
L 376.366522 269.414802 
L 377.017132 271.815779 
L 377.667743 271.680131 
L 378.318353 270.127602 
L 378.968963 266.660153 
L 379.619574 265.591977 
L 380.270184 269.420963 
L 380.920794 271.243169 
L 381.571405 269.359843 
L 382.222015 268.630458 
L 382.872625 268.509604 
L 383.523236 267.2657 
L 384.173846 266.321298 
L 384.824456 266.901882 
L 385.475066 271.135255 
L 386.125677 271.216201 
L 386.776287 268.783843 
L 387.426897 267.439765 
L 388.728118 267.890434 
L 389.378728 269.045696 
L 390.029339 269.700318 
L 390.679949 267.628261 
L 391.330559 266.096454 
L 391.98117 269.638922 
L 392.63178 271.596542 
L 393.933001 268.82292 
L 394.583611 268.276232 
L 395.234221 269.042243 
L 395.884831 271.580766 
L 396.535442 269.507515 
L 397.186052 266.585518 
L 398.487273 270.967715 
L 398.487273 270.967715 
" clip-path="url(#p9a84226eda)" style="fill: none; stroke: #ff7f0e; stroke-width: 1.5; stroke-linecap: square"/>
   </g>
   <g id="patch_3">
    <path d="M 57.6 307.584 
L 57.6 41.472 
" style="fill: none; stroke: #000000; stroke-width: 0.8; stroke-linejoin: miter; stroke-linecap: square"/>
   </g>
   <g id="patch_4">
    <path d="M 414.72 307.584 
L 414.72 41.472 
" style="fill: none; stroke: #000000; stroke-width: 0.8; stroke-linejoin: miter; stroke-linecap: square"/>
   </g>
   <g id="patch_5">
    <path d="M 57.6 307.584 
L 414.72 307.584 
" style="fill: none; stroke: #000000; stroke-width: 0.8; stroke-linejoin: miter; stroke-linecap: square"/>
   </g>
   <g id="patch_6">
    <path d="M 57.6 41.472 
L 414.72 41.472 
" style="fill: none; stroke: #000000; stroke-width: 0.8; stroke-linejoin: miter; stroke-linecap: square"/>
   </g>
   <g id="text_17">
    <!-- Losses of MLPDROPGCN on DGraph, 500 epochs -->
    <g transform="translate(91.105312 35.472) scale(0.12 -0.12)">
     <defs>
      <path id="DejaVuSans-4c" d="M 628 4666 
L 1259 4666 
L 1259 531 
L 3531 531 
L 3531 0 
L 628 0 
L 628 4666 
z
" transform="scale(0.015625)"/>
      <path id="DejaVuSans-20" transform="scale(0.015625)"/>
      <path id="DejaVuSans-66" d="M 2375 4863 
L 2375 4384 
L 1825 4384 
Q 1516 4384 1395 4259 
Q 1275 4134 1275 3809 
L 1275 3500 
L 2222 3500 
L 2222 3053 
L 1275 3053 
L 1275 0 
L 697 0 
L 697 3053 
L 147 3053 
L 147 3500 
L 697 3500 
L 697 3744 
Q 697 4328 969 4595 
Q 1241 4863 1831 4863 
L 2375 4863 
z
" transform="scale(0.015625)"/>
      <path id="DejaVuSans-4d" d="M 628 4666 
L 1569 4666 
L 2759 1491 
L 3956 4666 
L 4897 4666 
L 4897 0 
L 4281 0 
L 4281 4097 
L 3078 897 
L 2444 897 
L 1241 4097 
L 1241 0 
L 628 0 
L 628 4666 
z
" transform="scale(0.015625)"/>
      <path id="DejaVuSans-50" d="M 1259 4147 
L 1259 2394 
L 2053 2394 
Q 2494 2394 2734 2622 
Q 2975 2850 2975 3272 
Q 2975 3691 2734 3919 
Q 2494 4147 2053 4147 
L 1259 4147 
z
M 628 4666 
L 2053 4666 
Q 2838 4666 3239 4311 
Q 3641 3956 3641 3272 
Q 3641 2581 3239 2228 
Q 2838 1875 2053 1875 
L 1259 1875 
L 1259 0 
L 628 0 
L 628 4666 
z
" transform="scale(0.015625)"/>
      <path id="DejaVuSans-44" d="M 1259 4147 
L 1259 519 
L 2022 519 
Q 2988 519 3436 956 
Q 3884 1394 3884 2338 
Q 3884 3275 3436 3711 
Q 2988 4147 2022 4147 
L 1259 4147 
z
M 628 4666 
L 1925 4666 
Q 3281 4666 3915 4102 
Q 4550 3538 4550 2338 
Q 4550 1131 3912 565 
Q 3275 0 1925 0 
L 628 0 
L 628 4666 
z
" transform="scale(0.015625)"/>
      <path id="DejaVuSans-52" d="M 2841 2188 
Q 3044 2119 3236 1894 
Q 3428 1669 3622 1275 
L 4263 0 
L 3584 0 
L 2988 1197 
Q 2756 1666 2539 1819 
Q 2322 1972 1947 1972 
L 1259 1972 
L 1259 0 
L 628 0 
L 628 4666 
L 2053 4666 
Q 2853 4666 3247 4331 
Q 3641 3997 3641 3322 
Q 3641 2881 3436 2590 
Q 3231 2300 2841 2188 
z
M 1259 4147 
L 1259 2491 
L 2053 2491 
Q 2509 2491 2742 2702 
Q 2975 2913 2975 3322 
Q 2975 3731 2742 3939 
Q 2509 4147 2053 4147 
L 1259 4147 
z
" transform="scale(0.015625)"/>
      <path id="DejaVuSans-4f" d="M 2522 4238 
Q 1834 4238 1429 3725 
Q 1025 3213 1025 2328 
Q 1025 1447 1429 934 
Q 1834 422 2522 422 
Q 3209 422 3611 934 
Q 4013 1447 4013 2328 
Q 4013 3213 3611 3725 
Q 3209 4238 2522 4238 
z
M 2522 4750 
Q 3503 4750 4090 4092 
Q 4678 3434 4678 2328 
Q 4678 1225 4090 567 
Q 3503 -91 2522 -91 
Q 1538 -91 948 565 
Q 359 1222 359 2328 
Q 359 3434 948 4092 
Q 1538 4750 2522 4750 
z
" transform="scale(0.015625)"/>
      <path id="DejaVuSans-47" d="M 3809 666 
L 3809 1919 
L 2778 1919 
L 2778 2438 
L 4434 2438 
L 4434 434 
Q 4069 175 3628 42 
Q 3188 -91 2688 -91 
Q 1594 -91 976 548 
Q 359 1188 359 2328 
Q 359 3472 976 4111 
Q 1594 4750 2688 4750 
Q 3144 4750 3555 4637 
Q 3966 4525 4313 4306 
L 4313 3634 
Q 3963 3931 3569 4081 
Q 3175 4231 2741 4231 
Q 1884 4231 1454 3753 
Q 1025 3275 1025 2328 
Q 1025 1384 1454 906 
Q 1884 428 2741 428 
Q 3075 428 3337 486 
Q 3600 544 3809 666 
z
" transform="scale(0.015625)"/>
      <path id="DejaVuSans-43" d="M 4122 4306 
L 4122 3641 
Q 3803 3938 3442 4084 
Q 3081 4231 2675 4231 
Q 1875 4231 1450 3742 
Q 1025 3253 1025 2328 
Q 1025 1406 1450 917 
Q 1875 428 2675 428 
Q 3081 428 3442 575 
Q 3803 722 4122 1019 
L 4122 359 
Q 3791 134 3420 21 
Q 3050 -91 2638 -91 
Q 1578 -91 968 557 
Q 359 1206 359 2328 
Q 359 3453 968 4101 
Q 1578 4750 2638 4750 
Q 3056 4750 3426 4639 
Q 3797 4528 4122 4306 
z
" transform="scale(0.015625)"/>
      <path id="DejaVuSans-4e" d="M 628 4666 
L 1478 4666 
L 3547 763 
L 3547 4666 
L 4159 4666 
L 4159 0 
L 3309 0 
L 1241 3903 
L 1241 0 
L 628 0 
L 628 4666 
z
" transform="scale(0.015625)"/>
      <path id="DejaVuSans-6e" d="M 3513 2113 
L 3513 0 
L 2938 0 
L 2938 2094 
Q 2938 2591 2744 2837 
Q 2550 3084 2163 3084 
Q 1697 3084 1428 2787 
Q 1159 2491 1159 1978 
L 1159 0 
L 581 0 
L 581 3500 
L 1159 3500 
L 1159 2956 
Q 1366 3272 1645 3428 
Q 1925 3584 2291 3584 
Q 2894 3584 3203 3211 
Q 3513 2838 3513 2113 
z
" transform="scale(0.015625)"/>
      <path id="DejaVuSans-72" d="M 2631 2963 
Q 2534 3019 2420 3045 
Q 2306 3072 2169 3072 
Q 1681 3072 1420 2755 
Q 1159 2438 1159 1844 
L 1159 0 
L 581 0 
L 581 3500 
L 1159 3500 
L 1159 2956 
Q 1341 3275 1631 3429 
Q 1922 3584 2338 3584 
Q 2397 3584 2469 3576 
Q 2541 3569 2628 3553 
L 2631 2963 
z
" transform="scale(0.015625)"/>
      <path id="DejaVuSans-61" d="M 2194 1759 
Q 1497 1759 1228 1600 
Q 959 1441 959 1056 
Q 959 750 1161 570 
Q 1363 391 1709 391 
Q 2188 391 2477 730 
Q 2766 1069 2766 1631 
L 2766 1759 
L 2194 1759 
z
M 3341 1997 
L 3341 0 
L 2766 0 
L 2766 531 
Q 2569 213 2275 61 
Q 1981 -91 1556 -91 
Q 1019 -91 701 211 
Q 384 513 384 1019 
Q 384 1609 779 1909 
Q 1175 2209 1959 2209 
L 2766 2209 
L 2766 2266 
Q 2766 2663 2505 2880 
Q 2244 3097 1772 3097 
Q 1472 3097 1187 3025 
Q 903 2953 641 2809 
L 641 3341 
Q 956 3463 1253 3523 
Q 1550 3584 1831 3584 
Q 2591 3584 2966 3190 
Q 3341 2797 3341 1997 
z
" transform="scale(0.015625)"/>
      <path id="DejaVuSans-2c" d="M 750 794 
L 1409 794 
L 1409 256 
L 897 -744 
L 494 -744 
L 750 256 
L 750 794 
z
" transform="scale(0.015625)"/>
     </defs>
     <use xlink:href="#DejaVuSans-4c"/>
     <use xlink:href="#DejaVuSans-6f" x="53.962891"/>
     <use xlink:href="#DejaVuSans-73" x="115.144531"/>
     <use xlink:href="#DejaVuSans-73" x="167.244141"/>
     <use xlink:href="#DejaVuSans-65" x="219.34375"/>
     <use xlink:href="#DejaVuSans-73" x="280.867188"/>
     <use xlink:href="#DejaVuSans-20" x="332.966797"/>
     <use xlink:href="#DejaVuSans-6f" x="364.753906"/>
     <use xlink:href="#DejaVuSans-66" x="425.935547"/>
     <use xlink:href="#DejaVuSans-20" x="461.140625"/>
     <use xlink:href="#DejaVuSans-4d" x="492.927734"/>
     <use xlink:href="#DejaVuSans-4c" x="579.207031"/>
     <use xlink:href="#DejaVuSans-50" x="634.919922"/>
     <use xlink:href="#DejaVuSans-44" x="695.222656"/>
     <use xlink:href="#DejaVuSans-52" x="772.224609"/>
     <use xlink:href="#DejaVuSans-4f" x="841.707031"/>
     <use xlink:href="#DejaVuSans-50" x="920.417969"/>
     <use xlink:href="#DejaVuSans-47" x="980.720703"/>
     <use xlink:href="#DejaVuSans-43" x="1058.210938"/>
     <use xlink:href="#DejaVuSans-4e" x="1128.035156"/>
     <use xlink:href="#DejaVuSans-20" x="1202.839844"/>
     <use xlink:href="#DejaVuSans-6f" x="1234.626953"/>
     <use xlink:href="#DejaVuSans-6e" x="1295.808594"/>
     <use xlink:href="#DejaVuSans-20" x="1359.1875"/>
     <use xlink:href="#DejaVuSans-44" x="1390.974609"/>
     <use xlink:href="#DejaVuSans-47" x="1467.976562"/>
     <use xlink:href="#DejaVuSans-72" x="1545.466797"/>
     <use xlink:href="#DejaVuSans-61" x="1586.580078"/>
     <use xlink:href="#DejaVuSans-70" x="1647.859375"/>
     <use xlink:href="#DejaVuSans-68" x="1711.335938"/>
     <use xlink:href="#DejaVuSans-2c" x="1774.714844"/>
     <use xlink:href="#DejaVuSans-20" x="1806.501953"/>
     <use xlink:href="#DejaVuSans-35" x="1838.289062"/>
     <use xlink:href="#DejaVuSans-30" x="1901.912109"/>
     <use xlink:href="#DejaVuSans-30" x="1965.535156"/>
     <use xlink:href="#DejaVuSans-20" x="2029.158203"/>
     <use xlink:href="#DejaVuSans-65" x="2060.945312"/>
     <use xlink:href="#DejaVuSans-70" x="2122.46875"/>
     <use xlink:href="#DejaVuSans-6f" x="2185.945312"/>
     <use xlink:href="#DejaVuSans-63" x="2247.126953"/>
     <use xlink:href="#DejaVuSans-68" x="2302.107422"/>
     <use xlink:href="#DejaVuSans-73" x="2365.486328"/>
    </g>
   </g>
   <g id="legend_1">
    <g id="patch_7">
     <path d="M 329.23875 78.82825 
L 407.72 78.82825 
Q 409.72 78.82825 409.72 76.82825 
L 409.72 48.472 
Q 409.72 46.472 407.72 46.472 
L 329.23875 46.472 
Q 327.23875 46.472 327.23875 48.472 
L 327.23875 76.82825 
Q 327.23875 78.82825 329.23875 78.82825 
z
" style="fill: #ffffff; opacity: 0.8; stroke: #cccccc; stroke-linejoin: miter"/>
    </g>
    <g id="line2d_17">
     <path d="M 331.23875 54.570437 
L 341.23875 54.570437 
L 351.23875 54.570437 
" style="fill: none; stroke: #1f77b4; stroke-width: 1.5; stroke-linecap: square"/>
    </g>
    <g id="text_18">
     <!-- Train loss -->
     <g transform="translate(359.23875 58.070437) scale(0.1 -0.1)">
      <defs>
       <path id="DejaVuSans-54" d="M -19 4666 
L 3928 4666 
L 3928 4134 
L 2272 4134 
L 2272 0 
L 1638 0 
L 1638 4134 
L -19 4134 
L -19 4666 
z
" transform="scale(0.015625)"/>
       <path id="DejaVuSans-69" d="M 603 3500 
L 1178 3500 
L 1178 0 
L 603 0 
L 603 3500 
z
M 603 4863 
L 1178 4863 
L 1178 4134 
L 603 4134 
L 603 4863 
z
" transform="scale(0.015625)"/>
      </defs>
      <use xlink:href="#DejaVuSans-54"/>
      <use xlink:href="#DejaVuSans-72" x="46.333984"/>
      <use xlink:href="#DejaVuSans-61" x="87.447266"/>
      <use xlink:href="#DejaVuSans-69" x="148.726562"/>
      <use xlink:href="#DejaVuSans-6e" x="176.509766"/>
      <use xlink:href="#DejaVuSans-20" x="239.888672"/>
      <use xlink:href="#DejaVuSans-6c" x="271.675781"/>
      <use xlink:href="#DejaVuSans-6f" x="299.458984"/>
      <use xlink:href="#DejaVuSans-73" x="360.640625"/>
      <use xlink:href="#DejaVuSans-73" x="412.740234"/>
     </g>
    </g>
    <g id="line2d_18">
     <path d="M 331.23875 69.248562 
L 341.23875 69.248562 
L 351.23875 69.248562 
" style="fill: none; stroke: #ff7f0e; stroke-width: 1.5; stroke-linecap: square"/>
    </g>
    <g id="text_19">
     <!-- Val loss -->
     <g transform="translate(359.23875 72.748562) scale(0.1 -0.1)">
      <defs>
       <path id="DejaVuSans-56" d="M 1831 0 
L 50 4666 
L 709 4666 
L 2188 738 
L 3669 4666 
L 4325 4666 
L 2547 0 
L 1831 0 
z
" transform="scale(0.015625)"/>
      </defs>
      <use xlink:href="#DejaVuSans-56"/>
      <use xlink:href="#DejaVuSans-61" x="60.658203"/>
      <use xlink:href="#DejaVuSans-6c" x="121.9375"/>
      <use xlink:href="#DejaVuSans-20" x="149.720703"/>
      <use xlink:href="#DejaVuSans-6c" x="181.507812"/>
      <use xlink:href="#DejaVuSans-6f" x="209.291016"/>
      <use xlink:href="#DejaVuSans-73" x="270.472656"/>
      <use xlink:href="#DejaVuSans-73" x="322.572266"/>
     </g>
    </g>
   </g>
  </g>
 </g>
 <defs>
  <clipPath id="p9a84226eda">
   <rect x="57.6" y="41.472" width="357.12" height="266.112"/>
  </clipPath>
 </defs>
</svg>
