<?xml version="1.0" encoding="utf-8" standalone="no"?>
<!DOCTYPE svg PUBLIC "-//W3C//DTD SVG 1.1//EN"
  "http://www.w3.org/Graphics/SVG/1.1/DTD/svg11.dtd">
<svg xmlns:xlink="http://www.w3.org/1999/xlink" width="460.8pt" height="345.6pt" viewBox="0 0 460.8 345.6" xmlns="http://www.w3.org/2000/svg" version="1.1">
 <metadata>
  <rdf:RDF xmlns:dc="http://purl.org/dc/elements/1.1/" xmlns:cc="http://creativecommons.org/ns#" xmlns:rdf="http://www.w3.org/1999/02/22-rdf-syntax-ns#">
   <cc:Work>
    <dc:type rdf:resource="http://purl.org/dc/dcmitype/StillImage"/>
    <dc:date>2023-06-17T18:45:41.584467</dc:date>
    <dc:format>image/svg+xml</dc:format>
    <dc:creator>
     <cc:Agent>
      <dc:title>Matplotlib v3.7.1, https://matplotlib.org/</dc:title>
     </cc:Agent>
    </dc:creator>
   </cc:Work>
  </rdf:RDF>
 </metadata>
 <defs>
  <style type="text/css">*{stroke-linejoin: round; stroke-linecap: butt}</style>
 </defs>
 <g id="figure_1">
  <g id="patch_1">
   <path d="M 0 345.6 
L 460.8 345.6 
L 460.8 0 
L 0 0 
z
" style="fill: #ffffff"/>
  </g>
  <g id="axes_1">
   <g id="patch_2">
    <path d="M 57.6 307.584 
L 414.72 307.584 
L 414.72 41.472 
L 57.6 41.472 
z
" style="fill: #ffffff"/>
   </g>
   <g id="matplotlib.axis_1">
    <g id="xtick_1">
     <g id="line2d_1">
      <defs>
       <path id="mbe676642c1" d="M 0 0 
L 0 3.5 
" style="stroke: #000000; stroke-width: 0.8"/>
      </defs>
      <g>
       <use xlink:href="#mbe676642c1" x="73.832727" y="307.584" style="stroke: #000000; stroke-width: 0.8"/>
      </g>
     </g>
     <g id="text_1">
      <!-- 0 -->
      <g transform="translate(70.651477 322.182437) scale(0.1 -0.1)">
       <defs>
        <path id="DejaVuSans-30" d="M 2034 4250 
Q 1547 4250 1301 3770 
Q 1056 3291 1056 2328 
Q 1056 1369 1301 889 
Q 1547 409 2034 409 
Q 2525 409 2770 889 
Q 3016 1369 3016 2328 
Q 3016 3291 2770 3770 
Q 2525 4250 2034 4250 
z
M 2034 4750 
Q 2819 4750 3233 4129 
Q 3647 3509 3647 2328 
Q 3647 1150 3233 529 
Q 2819 -91 2034 -91 
Q 1250 -91 836 529 
Q 422 1150 422 2328 
Q 422 3509 836 4129 
Q 1250 4750 2034 4750 
z
" transform="scale(0.015625)"/>
       </defs>
       <use xlink:href="#DejaVuSans-30"/>
      </g>
     </g>
    </g>
    <g id="xtick_2">
     <g id="line2d_2">
      <g>
       <use xlink:href="#mbe676642c1" x="138.893758" y="307.584" style="stroke: #000000; stroke-width: 0.8"/>
      </g>
     </g>
     <g id="text_2">
      <!-- 100 -->
      <g transform="translate(129.350008 322.182437) scale(0.1 -0.1)">
       <defs>
        <path id="DejaVuSans-31" d="M 794 531 
L 1825 531 
L 1825 4091 
L 703 3866 
L 703 4441 
L 1819 4666 
L 2450 4666 
L 2450 531 
L 3481 531 
L 3481 0 
L 794 0 
L 794 531 
z
" transform="scale(0.015625)"/>
       </defs>
       <use xlink:href="#DejaVuSans-31"/>
       <use xlink:href="#DejaVuSans-30" x="63.623047"/>
       <use xlink:href="#DejaVuSans-30" x="127.246094"/>
      </g>
     </g>
    </g>
    <g id="xtick_3">
     <g id="line2d_3">
      <g>
       <use xlink:href="#mbe676642c1" x="203.95479" y="307.584" style="stroke: #000000; stroke-width: 0.8"/>
      </g>
     </g>
     <g id="text_3">
      <!-- 200 -->
      <g transform="translate(194.41104 322.182437) scale(0.1 -0.1)">
       <defs>
        <path id="DejaVuSans-32" d="M 1228 531 
L 3431 531 
L 3431 0 
L 469 0 
L 469 531 
Q 828 903 1448 1529 
Q 2069 2156 2228 2338 
Q 2531 2678 2651 2914 
Q 2772 3150 2772 3378 
Q 2772 3750 2511 3984 
Q 2250 4219 1831 4219 
Q 1534 4219 1204 4116 
Q 875 4013 500 3803 
L 500 4441 
Q 881 4594 1212 4672 
Q 1544 4750 1819 4750 
Q 2544 4750 2975 4387 
Q 3406 4025 3406 3419 
Q 3406 3131 3298 2873 
Q 3191 2616 2906 2266 
Q 2828 2175 2409 1742 
Q 1991 1309 1228 531 
z
" transform="scale(0.015625)"/>
       </defs>
       <use xlink:href="#DejaVuSans-32"/>
       <use xlink:href="#DejaVuSans-30" x="63.623047"/>
       <use xlink:href="#DejaVuSans-30" x="127.246094"/>
      </g>
     </g>
    </g>
    <g id="xtick_4">
     <g id="line2d_4">
      <g>
       <use xlink:href="#mbe676642c1" x="269.015821" y="307.584" style="stroke: #000000; stroke-width: 0.8"/>
      </g>
     </g>
     <g id="text_4">
      <!-- 300 -->
      <g transform="translate(259.472071 322.182437) scale(0.1 -0.1)">
       <defs>
        <path id="DejaVuSans-33" d="M 2597 2516 
Q 3050 2419 3304 2112 
Q 3559 1806 3559 1356 
Q 3559 666 3084 287 
Q 2609 -91 1734 -91 
Q 1441 -91 1130 -33 
Q 819 25 488 141 
L 488 750 
Q 750 597 1062 519 
Q 1375 441 1716 441 
Q 2309 441 2620 675 
Q 2931 909 2931 1356 
Q 2931 1769 2642 2001 
Q 2353 2234 1838 2234 
L 1294 2234 
L 1294 2753 
L 1863 2753 
Q 2328 2753 2575 2939 
Q 2822 3125 2822 3475 
Q 2822 3834 2567 4026 
Q 2313 4219 1838 4219 
Q 1578 4219 1281 4162 
Q 984 4106 628 3988 
L 628 4550 
Q 988 4650 1302 4700 
Q 1616 4750 1894 4750 
Q 2613 4750 3031 4423 
Q 3450 4097 3450 3541 
Q 3450 3153 3228 2886 
Q 3006 2619 2597 2516 
z
" transform="scale(0.015625)"/>
       </defs>
       <use xlink:href="#DejaVuSans-33"/>
       <use xlink:href="#DejaVuSans-30" x="63.623047"/>
       <use xlink:href="#DejaVuSans-30" x="127.246094"/>
      </g>
     </g>
    </g>
    <g id="xtick_5">
     <g id="line2d_5">
      <g>
       <use xlink:href="#mbe676642c1" x="334.076852" y="307.584" style="stroke: #000000; stroke-width: 0.8"/>
      </g>
     </g>
     <g id="text_5">
      <!-- 400 -->
      <g transform="translate(324.533102 322.182437) scale(0.1 -0.1)">
       <defs>
        <path id="DejaVuSans-34" d="M 2419 4116 
L 825 1625 
L 2419 1625 
L 2419 4116 
z
M 2253 4666 
L 3047 4666 
L 3047 1625 
L 3713 1625 
L 3713 1100 
L 3047 1100 
L 3047 0 
L 2419 0 
L 2419 1100 
L 313 1100 
L 313 1709 
L 2253 4666 
z
" transform="scale(0.015625)"/>
       </defs>
       <use xlink:href="#DejaVuSans-34"/>
       <use xlink:href="#DejaVuSans-30" x="63.623047"/>
       <use xlink:href="#DejaVuSans-30" x="127.246094"/>
      </g>
     </g>
    </g>
    <g id="xtick_6">
     <g id="line2d_6">
      <g>
       <use xlink:href="#mbe676642c1" x="399.137883" y="307.584" style="stroke: #000000; stroke-width: 0.8"/>
      </g>
     </g>
     <g id="text_6">
      <!-- 500 -->
      <g transform="translate(389.594133 322.182437) scale(0.1 -0.1)">
       <defs>
        <path id="DejaVuSans-35" d="M 691 4666 
L 3169 4666 
L 3169 4134 
L 1269 4134 
L 1269 2991 
Q 1406 3038 1543 3061 
Q 1681 3084 1819 3084 
Q 2600 3084 3056 2656 
Q 3513 2228 3513 1497 
Q 3513 744 3044 326 
Q 2575 -91 1722 -91 
Q 1428 -91 1123 -41 
Q 819 9 494 109 
L 494 744 
Q 775 591 1075 516 
Q 1375 441 1709 441 
Q 2250 441 2565 725 
Q 2881 1009 2881 1497 
Q 2881 1984 2565 2268 
Q 2250 2553 1709 2553 
Q 1456 2553 1204 2497 
Q 953 2441 691 2322 
L 691 4666 
z
" transform="scale(0.015625)"/>
       </defs>
       <use xlink:href="#DejaVuSans-35"/>
       <use xlink:href="#DejaVuSans-30" x="63.623047"/>
       <use xlink:href="#DejaVuSans-30" x="127.246094"/>
      </g>
     </g>
    </g>
    <g id="text_7">
     <!-- epoch -->
     <g transform="translate(220.931875 335.860562) scale(0.1 -0.1)">
      <defs>
       <path id="DejaVuSans-65" d="M 3597 1894 
L 3597 1613 
L 953 1613 
Q 991 1019 1311 708 
Q 1631 397 2203 397 
Q 2534 397 2845 478 
Q 3156 559 3463 722 
L 3463 178 
Q 3153 47 2828 -22 
Q 2503 -91 2169 -91 
Q 1331 -91 842 396 
Q 353 884 353 1716 
Q 353 2575 817 3079 
Q 1281 3584 2069 3584 
Q 2775 3584 3186 3129 
Q 3597 2675 3597 1894 
z
M 3022 2063 
Q 3016 2534 2758 2815 
Q 2500 3097 2075 3097 
Q 1594 3097 1305 2825 
Q 1016 2553 972 2059 
L 3022 2063 
z
" transform="scale(0.015625)"/>
       <path id="DejaVuSans-70" d="M 1159 525 
L 1159 -1331 
L 581 -1331 
L 581 3500 
L 1159 3500 
L 1159 2969 
Q 1341 3281 1617 3432 
Q 1894 3584 2278 3584 
Q 2916 3584 3314 3078 
Q 3713 2572 3713 1747 
Q 3713 922 3314 415 
Q 2916 -91 2278 -91 
Q 1894 -91 1617 61 
Q 1341 213 1159 525 
z
M 3116 1747 
Q 3116 2381 2855 2742 
Q 2594 3103 2138 3103 
Q 1681 3103 1420 2742 
Q 1159 2381 1159 1747 
Q 1159 1113 1420 752 
Q 1681 391 2138 391 
Q 2594 391 2855 752 
Q 3116 1113 3116 1747 
z
" transform="scale(0.015625)"/>
       <path id="DejaVuSans-6f" d="M 1959 3097 
Q 1497 3097 1228 2736 
Q 959 2375 959 1747 
Q 959 1119 1226 758 
Q 1494 397 1959 397 
Q 2419 397 2687 759 
Q 2956 1122 2956 1747 
Q 2956 2369 2687 2733 
Q 2419 3097 1959 3097 
z
M 1959 3584 
Q 2709 3584 3137 3096 
Q 3566 2609 3566 1747 
Q 3566 888 3137 398 
Q 2709 -91 1959 -91 
Q 1206 -91 779 398 
Q 353 888 353 1747 
Q 353 2609 779 3096 
Q 1206 3584 1959 3584 
z
" transform="scale(0.015625)"/>
       <path id="DejaVuSans-63" d="M 3122 3366 
L 3122 2828 
Q 2878 2963 2633 3030 
Q 2388 3097 2138 3097 
Q 1578 3097 1268 2742 
Q 959 2388 959 1747 
Q 959 1106 1268 751 
Q 1578 397 2138 397 
Q 2388 397 2633 464 
Q 2878 531 3122 666 
L 3122 134 
Q 2881 22 2623 -34 
Q 2366 -91 2075 -91 
Q 1284 -91 818 406 
Q 353 903 353 1747 
Q 353 2603 823 3093 
Q 1294 3584 2113 3584 
Q 2378 3584 2631 3529 
Q 2884 3475 3122 3366 
z
" transform="scale(0.015625)"/>
       <path id="DejaVuSans-68" d="M 3513 2113 
L 3513 0 
L 2938 0 
L 2938 2094 
Q 2938 2591 2744 2837 
Q 2550 3084 2163 3084 
Q 1697 3084 1428 2787 
Q 1159 2491 1159 1978 
L 1159 0 
L 581 0 
L 581 4863 
L 1159 4863 
L 1159 2956 
Q 1366 3272 1645 3428 
Q 1925 3584 2291 3584 
Q 2894 3584 3203 3211 
Q 3513 2838 3513 2113 
z
" transform="scale(0.015625)"/>
      </defs>
      <use xlink:href="#DejaVuSans-65"/>
      <use xlink:href="#DejaVuSans-70" x="61.523438"/>
      <use xlink:href="#DejaVuSans-6f" x="125"/>
      <use xlink:href="#DejaVuSans-63" x="186.181641"/>
      <use xlink:href="#DejaVuSans-68" x="241.162109"/>
     </g>
    </g>
   </g>
   <g id="matplotlib.axis_2">
    <g id="ytick_1">
     <g id="line2d_7">
      <defs>
       <path id="m98b13961ba" d="M 0 0 
L -3.5 0 
" style="stroke: #000000; stroke-width: 0.8"/>
      </defs>
      <g>
       <use xlink:href="#m98b13961ba" x="57.6" y="294.625062" style="stroke: #000000; stroke-width: 0.8"/>
      </g>
     </g>
     <g id="text_8">
      <!-- 0.56 -->
      <g transform="translate(28.334375 298.424281) scale(0.1 -0.1)">
       <defs>
        <path id="DejaVuSans-2e" d="M 684 794 
L 1344 794 
L 1344 0 
L 684 0 
L 684 794 
z
" transform="scale(0.015625)"/>
        <path id="DejaVuSans-36" d="M 2113 2584 
Q 1688 2584 1439 2293 
Q 1191 2003 1191 1497 
Q 1191 994 1439 701 
Q 1688 409 2113 409 
Q 2538 409 2786 701 
Q 3034 994 3034 1497 
Q 3034 2003 2786 2293 
Q 2538 2584 2113 2584 
z
M 3366 4563 
L 3366 3988 
Q 3128 4100 2886 4159 
Q 2644 4219 2406 4219 
Q 1781 4219 1451 3797 
Q 1122 3375 1075 2522 
Q 1259 2794 1537 2939 
Q 1816 3084 2150 3084 
Q 2853 3084 3261 2657 
Q 3669 2231 3669 1497 
Q 3669 778 3244 343 
Q 2819 -91 2113 -91 
Q 1303 -91 875 529 
Q 447 1150 447 2328 
Q 447 3434 972 4092 
Q 1497 4750 2381 4750 
Q 2619 4750 2861 4703 
Q 3103 4656 3366 4563 
z
" transform="scale(0.015625)"/>
       </defs>
       <use xlink:href="#DejaVuSans-30"/>
       <use xlink:href="#DejaVuSans-2e" x="63.623047"/>
       <use xlink:href="#DejaVuSans-35" x="95.410156"/>
       <use xlink:href="#DejaVuSans-36" x="159.033203"/>
      </g>
     </g>
    </g>
    <g id="ytick_2">
     <g id="line2d_8">
      <g>
       <use xlink:href="#m98b13961ba" x="57.6" y="261.623561" style="stroke: #000000; stroke-width: 0.8"/>
      </g>
     </g>
     <g id="text_9">
      <!-- 0.58 -->
      <g transform="translate(28.334375 265.42278) scale(0.1 -0.1)">
       <defs>
        <path id="DejaVuSans-38" d="M 2034 2216 
Q 1584 2216 1326 1975 
Q 1069 1734 1069 1313 
Q 1069 891 1326 650 
Q 1584 409 2034 409 
Q 2484 409 2743 651 
Q 3003 894 3003 1313 
Q 3003 1734 2745 1975 
Q 2488 2216 2034 2216 
z
M 1403 2484 
Q 997 2584 770 2862 
Q 544 3141 544 3541 
Q 544 4100 942 4425 
Q 1341 4750 2034 4750 
Q 2731 4750 3128 4425 
Q 3525 4100 3525 3541 
Q 3525 3141 3298 2862 
Q 3072 2584 2669 2484 
Q 3125 2378 3379 2068 
Q 3634 1759 3634 1313 
Q 3634 634 3220 271 
Q 2806 -91 2034 -91 
Q 1263 -91 848 271 
Q 434 634 434 1313 
Q 434 1759 690 2068 
Q 947 2378 1403 2484 
z
M 1172 3481 
Q 1172 3119 1398 2916 
Q 1625 2713 2034 2713 
Q 2441 2713 2670 2916 
Q 2900 3119 2900 3481 
Q 2900 3844 2670 4047 
Q 2441 4250 2034 4250 
Q 1625 4250 1398 4047 
Q 1172 3844 1172 3481 
z
" transform="scale(0.015625)"/>
       </defs>
       <use xlink:href="#DejaVuSans-30"/>
       <use xlink:href="#DejaVuSans-2e" x="63.623047"/>
       <use xlink:href="#DejaVuSans-35" x="95.410156"/>
       <use xlink:href="#DejaVuSans-38" x="159.033203"/>
      </g>
     </g>
    </g>
    <g id="ytick_3">
     <g id="line2d_9">
      <g>
       <use xlink:href="#m98b13961ba" x="57.6" y="228.62206" style="stroke: #000000; stroke-width: 0.8"/>
      </g>
     </g>
     <g id="text_10">
      <!-- 0.60 -->
      <g transform="translate(28.334375 232.421278) scale(0.1 -0.1)">
       <use xlink:href="#DejaVuSans-30"/>
       <use xlink:href="#DejaVuSans-2e" x="63.623047"/>
       <use xlink:href="#DejaVuSans-36" x="95.410156"/>
       <use xlink:href="#DejaVuSans-30" x="159.033203"/>
      </g>
     </g>
    </g>
    <g id="ytick_4">
     <g id="line2d_10">
      <g>
       <use xlink:href="#m98b13961ba" x="57.6" y="195.620558" style="stroke: #000000; stroke-width: 0.8"/>
      </g>
     </g>
     <g id="text_11">
      <!-- 0.62 -->
      <g transform="translate(28.334375 199.419777) scale(0.1 -0.1)">
       <use xlink:href="#DejaVuSans-30"/>
       <use xlink:href="#DejaVuSans-2e" x="63.623047"/>
       <use xlink:href="#DejaVuSans-36" x="95.410156"/>
       <use xlink:href="#DejaVuSans-32" x="159.033203"/>
      </g>
     </g>
    </g>
    <g id="ytick_5">
     <g id="line2d_11">
      <g>
       <use xlink:href="#m98b13961ba" x="57.6" y="162.619057" style="stroke: #000000; stroke-width: 0.8"/>
      </g>
     </g>
     <g id="text_12">
      <!-- 0.64 -->
      <g transform="translate(28.334375 166.418276) scale(0.1 -0.1)">
       <use xlink:href="#DejaVuSans-30"/>
       <use xlink:href="#DejaVuSans-2e" x="63.623047"/>
       <use xlink:href="#DejaVuSans-36" x="95.410156"/>
       <use xlink:href="#DejaVuSans-34" x="159.033203"/>
      </g>
     </g>
    </g>
    <g id="ytick_6">
     <g id="line2d_12">
      <g>
       <use xlink:href="#m98b13961ba" x="57.6" y="129.617556" style="stroke: #000000; stroke-width: 0.8"/>
      </g>
     </g>
     <g id="text_13">
      <!-- 0.66 -->
      <g transform="translate(28.334375 133.416774) scale(0.1 -0.1)">
       <use xlink:href="#DejaVuSans-30"/>
       <use xlink:href="#DejaVuSans-2e" x="63.623047"/>
       <use xlink:href="#DejaVuSans-36" x="95.410156"/>
       <use xlink:href="#DejaVuSans-36" x="159.033203"/>
      </g>
     </g>
    </g>
    <g id="ytick_7">
     <g id="line2d_13">
      <g>
       <use xlink:href="#m98b13961ba" x="57.6" y="96.616054" style="stroke: #000000; stroke-width: 0.8"/>
      </g>
     </g>
     <g id="text_14">
      <!-- 0.68 -->
      <g transform="translate(28.334375 100.415273) scale(0.1 -0.1)">
       <use xlink:href="#DejaVuSans-30"/>
       <use xlink:href="#DejaVuSans-2e" x="63.623047"/>
       <use xlink:href="#DejaVuSans-36" x="95.410156"/>
       <use xlink:href="#DejaVuSans-38" x="159.033203"/>
      </g>
     </g>
    </g>
    <g id="ytick_8">
     <g id="line2d_14">
      <g>
       <use xlink:href="#m98b13961ba" x="57.6" y="63.614553" style="stroke: #000000; stroke-width: 0.8"/>
      </g>
     </g>
     <g id="text_15">
      <!-- 0.70 -->
      <g transform="translate(28.334375 67.413772) scale(0.1 -0.1)">
       <defs>
        <path id="DejaVuSans-37" d="M 525 4666 
L 3525 4666 
L 3525 4397 
L 1831 0 
L 1172 0 
L 2766 4134 
L 525 4134 
L 525 4666 
z
" transform="scale(0.015625)"/>
       </defs>
       <use xlink:href="#DejaVuSans-30"/>
       <use xlink:href="#DejaVuSans-2e" x="63.623047"/>
       <use xlink:href="#DejaVuSans-37" x="95.410156"/>
       <use xlink:href="#DejaVuSans-30" x="159.033203"/>
      </g>
     </g>
    </g>
    <g id="text_16">
     <!-- loss -->
     <g transform="translate(22.254688 184.185812) rotate(-90) scale(0.1 -0.1)">
      <defs>
       <path id="DejaVuSans-6c" d="M 603 4863 
L 1178 4863 
L 1178 0 
L 603 0 
L 603 4863 
z
" transform="scale(0.015625)"/>
       <path id="DejaVuSans-73" d="M 2834 3397 
L 2834 2853 
Q 2591 2978 2328 3040 
Q 2066 3103 1784 3103 
Q 1356 3103 1142 2972 
Q 928 2841 928 2578 
Q 928 2378 1081 2264 
Q 1234 2150 1697 2047 
L 1894 2003 
Q 2506 1872 2764 1633 
Q 3022 1394 3022 966 
Q 3022 478 2636 193 
Q 2250 -91 1575 -91 
Q 1294 -91 989 -36 
Q 684 19 347 128 
L 347 722 
Q 666 556 975 473 
Q 1284 391 1588 391 
Q 1994 391 2212 530 
Q 2431 669 2431 922 
Q 2431 1156 2273 1281 
Q 2116 1406 1581 1522 
L 1381 1569 
Q 847 1681 609 1914 
Q 372 2147 372 2553 
Q 372 3047 722 3315 
Q 1072 3584 1716 3584 
Q 2034 3584 2315 3537 
Q 2597 3491 2834 3397 
z
" transform="scale(0.015625)"/>
      </defs>
      <use xlink:href="#DejaVuSans-6c"/>
      <use xlink:href="#DejaVuSans-6f" x="27.783203"/>
      <use xlink:href="#DejaVuSans-73" x="88.964844"/>
      <use xlink:href="#DejaVuSans-73" x="141.064453"/>
     </g>
    </g>
   </g>
   <g id="line2d_15">
    <path d="M 73.832727 53.568 
L 74.483338 131.040864 
L 75.133948 128.830892 
L 75.784558 136.825937 
L 77.085779 183.79164 
L 77.736389 191.221751 
L 78.386999 191.09586 
L 79.03761 194.078094 
L 79.68822 200.699652 
L 80.33883 205.973785 
L 80.989441 207.477491 
L 81.640051 207.044741 
L 82.290661 207.496669 
L 83.591882 211.737319 
L 84.242492 212.508793 
L 84.893103 212.035621 
L 85.543713 212.221211 
L 86.194323 214.304408 
L 86.844934 217.454725 
L 87.495544 219.95464 
L 88.146154 221.022351 
L 88.796764 221.269411 
L 89.447375 221.834641 
L 90.097985 223.261632 
L 91.399206 226.766509 
L 92.049816 227.519198 
L 93.351037 227.84612 
L 94.001647 228.51639 
L 95.302868 230.386458 
L 97.254698 232.191318 
L 99.206529 234.754669 
L 100.50775 236.06649 
L 101.808971 237.729232 
L 103.110191 238.735964 
L 103.760802 239.267656 
L 105.062022 240.661502 
L 107.013853 242.338308 
L 108.315074 243.603608 
L 112.218736 246.862211 
L 114.821177 248.844794 
L 119.375449 252.032288 
L 126.532163 256.448004 
L 135.640707 261.483732 
L 142.14681 264.580349 
L 147.351692 266.770159 
L 153.857796 269.212538 
L 159.713288 271.182925 
L 166.870002 273.344114 
L 174.026715 275.281848 
L 176.629156 275.875403 
L 177.930377 276.298023 
L 179.882208 276.697529 
L 181.834039 277.194699 
L 183.78587 277.641119 
L 186.388311 278.215397 
L 191.593194 279.323334 
L 195.496856 280.087235 
L 214.364555 283.267944 
L 216.966996 283.57136 
L 220.870658 284.277233 
L 226.07554 284.891147 
L 228.677981 285.337174 
L 231.280423 285.524437 
L 233.232254 285.597021 
L 235.184085 286.060948 
L 236.485305 286.296993 
L 240.388967 286.629521 
L 242.991408 287.03965 
L 246.24446 287.177441 
L 248.196291 287.30048 
L 250.148122 287.722902 
L 251.449342 287.965635 
L 253.401173 288.063987 
L 256.654225 288.129981 
L 257.955445 288.371829 
L 259.907276 288.788842 
L 261.859107 288.901456 
L 265.762769 288.85346 
L 269.015821 289.601231 
L 270.967652 289.556579 
L 272.919483 289.526877 
L 274.871314 289.872486 
L 276.823144 290.235996 
L 278.774975 290.316743 
L 280.726806 290.195081 
L 282.678637 289.881043 
L 283.979858 290.038603 
L 285.931689 290.866826 
L 286.582299 290.925149 
L 289.18474 290.651337 
L 290.485961 290.898889 
L 291.787182 291.239483 
L 293.088402 291.339113 
L 296.992064 291.227975 
L 299.594505 291.621974 
L 301.546336 291.867166 
L 304.148778 291.968665 
L 305.449998 291.903851 
L 306.100608 291.79409 
L 307.401829 291.227287 
L 308.052439 290.655664 
L 308.70305 290.270517 
L 309.35366 290.045881 
L 310.00427 290.83142 
L 310.654881 291.795959 
L 311.305491 292.377319 
L 311.956101 292.166845 
L 312.606712 291.568864 
L 313.257322 291.365373 
L 313.907932 291.661807 
L 314.558543 292.30857 
L 315.209153 292.575006 
L 317.160984 291.988533 
L 318.462204 292.674244 
L 319.112815 292.744369 
L 320.414035 292.407709 
L 321.064646 292.459934 
L 322.365866 292.869571 
L 323.016477 292.942942 
L 324.968308 292.772891 
L 328.871969 293.145842 
L 331.474411 293.180757 
L 337.329903 293.570822 
L 339.932345 293.567478 
L 341.233565 293.331629 
L 341.884176 293.006477 
L 342.534786 292.505766 
L 343.185396 291.654234 
L 343.836007 291.026059 
L 344.486617 290.578655 
L 345.137227 291.688067 
L 345.787837 293.056047 
L 346.438448 293.868927 
L 347.089058 293.497549 
L 347.739668 292.637263 
L 348.390279 292.477736 
L 349.040889 293.010903 
L 349.691499 293.784541 
L 350.34211 293.889188 
L 350.99272 293.486534 
L 351.64333 293.250489 
L 352.293941 293.412967 
L 352.944551 293.839421 
L 353.595161 294.026979 
L 355.546992 293.771755 
L 357.498823 294.218471 
L 360.101264 294.156115 
L 361.402485 294.438779 
L 364.655537 294.446844 
L 366.607367 294.586799 
L 377.017132 294.808485 
L 378.318353 294.656728 
L 378.968963 294.474285 
L 380.270184 293.739397 
L 380.920794 293.15017 
L 382.222015 292.575498 
L 383.523236 294.036224 
L 384.173846 294.850776 
L 384.824456 295.094887 
L 385.475066 294.832778 
L 386.776287 294.103694 
L 387.426897 294.31043 
L 388.728118 295.162749 
L 389.378728 295.296115 
L 391.330559 294.663219 
L 391.98117 294.829237 
L 393.28239 295.384534 
L 393.933001 295.456232 
L 396.535442 295.156553 
L 398.487273 295.488 
L 398.487273 295.488 
" clip-path="url(#p2981496b1f)" style="fill: none; stroke: #1f77b4; stroke-width: 1.5; stroke-linecap: square"/>
   </g>
   <g id="line2d_16">
    <path d="M 73.832727 135.035633 
L 74.483338 131.790504 
L 75.133948 138.702988 
L 76.435169 184.176099 
L 77.085779 191.128316 
L 77.736389 190.792051 
L 78.386999 193.707601 
L 79.03761 200.325225 
L 79.68822 205.506809 
L 80.33883 206.787551 
L 80.989441 205.985587 
L 81.640051 205.924215 
L 82.941272 208.974017 
L 83.591882 209.263566 
L 84.242492 208.474978 
L 84.893103 208.541759 
L 85.543713 210.680623 
L 86.194323 214.002172 
L 86.844934 216.731443 
L 87.495544 218.050542 
L 88.146154 218.504437 
L 88.796764 219.157496 
L 89.447375 220.560882 
L 90.097985 222.358759 
L 90.748595 223.769424 
L 91.399206 224.33426 
L 92.049816 224.314393 
L 92.700426 224.42622 
L 93.351037 225.096588 
L 94.652257 227.228764 
L 98.555919 231.953109 
L 99.85714 233.010984 
L 101.15836 234.515575 
L 101.808971 235.047562 
L 103.110191 235.880506 
L 104.411412 237.065551 
L 105.712633 237.957999 
L 108.315074 240.311074 
L 109.616294 241.236862 
L 110.917515 242.015713 
L 112.869346 243.629278 
L 114.170567 244.490548 
L 119.375449 247.291518 
L 121.97789 248.799847 
L 123.929721 249.83038 
L 125.881552 250.88206 
L 129.134604 252.324886 
L 131.086435 253.159994 
L 134.339486 254.56161 
L 137.592538 255.647909 
L 140.845589 256.669985 
L 144.749251 257.887191 
L 152.556575 259.90754 
L 155.159016 260.45546 
L 159.713288 261.487567 
L 167.520612 263.096313 
L 174.026715 264.482292 
L 174.677326 264.362007 
L 175.327936 264.720697 
L 175.978546 264.652244 
L 176.629156 265.018901 
L 181.183429 265.699006 
L 181.834039 265.916758 
L 182.484649 265.882433 
L 183.13526 266.152114 
L 184.43648 266.31292 
L 185.087091 266.480807 
L 185.737701 266.453662 
L 186.388311 266.685478 
L 187.038921 266.711836 
L 188.340142 266.976305 
L 188.990752 267.001483 
L 189.641363 267.213629 
L 190.291973 267.196712 
L 190.942583 267.431676 
L 191.593194 267.454395 
L 192.894414 267.704111 
L 194.846245 267.887931 
L 195.496856 268.085521 
L 196.147466 268.039787 
L 196.798076 268.270718 
L 197.448686 268.229902 
L 198.099297 268.464865 
L 198.749907 268.424147 
L 199.400517 268.64239 
L 200.051128 268.599017 
L 200.701738 268.805655 
L 201.352348 268.765626 
L 202.002959 268.975903 
L 202.653569 268.931152 
L 203.304179 269.145757 
L 203.95479 269.08527 
L 204.6054 269.292006 
L 205.25601 269.202998 
L 205.906621 269.431961 
L 206.557231 269.301448 
L 207.207841 269.559721 
L 207.858451 269.380228 
L 208.509062 269.686398 
L 209.159672 269.505627 
L 209.810282 269.846417 
L 210.460893 269.770588 
L 211.111503 270.044105 
L 212.412724 270.156227 
L 213.063334 270.274052 
L 213.713944 270.174815 
L 214.364555 270.378502 
L 215.015165 270.190847 
L 215.665775 270.473314 
L 216.316385 270.30228 
L 216.966996 270.623104 
L 217.617606 270.557012 
L 218.268216 270.797876 
L 219.569437 270.89554 
L 220.220047 270.994974 
L 220.870658 270.933799 
L 221.521268 271.104931 
L 222.171878 270.960255 
L 222.822489 271.190104 
L 223.473099 271.009235 
L 224.123709 271.301045 
L 224.77432 271.160894 
L 225.42493 271.465884 
L 226.07554 271.407462 
L 226.72615 271.617051 
L 229.328592 271.673112 
L 229.979202 271.833721 
L 230.629812 271.637213 
L 231.280423 271.866865 
L 231.931033 271.580661 
L 232.581643 271.89047 
L 233.232254 271.675079 
L 233.882864 272.052948 
L 234.533474 272.003771 
L 235.184085 272.228801 
L 237.135915 272.323318 
L 237.786526 272.121892 
L 238.437136 272.358331 
L 239.087746 272.203033 
L 239.738357 272.487467 
L 240.388967 272.428259 
L 241.039577 272.623095 
L 244.292629 272.790589 
L 244.943239 272.576279 
L 245.59385 272.774951 
L 246.24446 272.498581 
L 246.89507 272.769541 
L 247.54568 272.529267 
L 248.196291 272.880679 
L 248.846901 272.772787 
L 249.497511 273.08653 
L 250.148122 273.07581 
L 251.449342 273.236124 
L 252.099953 273.163638 
L 252.750563 273.277727 
L 253.401173 273.074826 
L 254.051784 273.253729 
L 254.702394 272.968999 
L 255.353004 273.213404 
L 256.003615 272.962311 
L 256.654225 273.284513 
L 257.304835 273.156557 
L 257.955445 273.481512 
L 258.606056 273.455252 
L 259.256666 273.615075 
L 261.208497 273.672414 
L 261.859107 273.467645 
L 262.509718 273.596781 
L 263.160328 273.270055 
L 263.810938 273.468432 
L 264.461549 273.12774 
L 265.112159 273.44463 
L 265.762769 273.263367 
L 266.413379 273.655596 
L 267.06399 273.625893 
L 267.7146 273.82545 
L 269.666431 273.794764 
L 270.317041 273.517608 
L 270.967652 273.693953 
L 271.618262 273.368702 
L 272.268872 273.659923 
L 272.919483 273.412272 
L 273.570093 273.786207 
L 274.220703 273.667988 
L 274.871314 273.970027 
L 275.521924 273.926457 
L 276.823144 274.031301 
L 277.473755 273.961864 
L 278.124365 274.0254 
L 278.774975 273.819549 
L 279.425586 273.950357 
L 280.076196 273.601895 
L 280.726806 273.784732 
L 281.377417 273.310675 
L 282.028027 273.562161 
L 282.678637 273.153115 
L 283.329248 273.626975 
L 283.979858 273.555867 
L 284.630468 274.067986 
L 286.582299 274.179124 
L 287.232909 273.856431 
L 287.88352 273.993042 
L 288.53413 273.659825 
L 289.18474 274.002975 
L 289.835351 273.85889 
L 290.485961 274.215514 
L 291.787182 274.298425 
L 292.437792 274.325865 
L 293.088402 274.168994 
L 293.739013 274.253478 
L 294.389623 273.98124 
L 295.040233 274.156601 
L 295.690844 273.861053 
L 296.341454 274.132505 
L 296.992064 273.890264 
L 297.642674 274.214236 
L 298.293285 274.06356 
L 298.943895 274.331865 
L 299.594505 274.260658 
L 300.245116 274.399335 
L 302.847557 274.388122 
L 303.498167 274.448314 
L 304.148778 274.285738 
L 304.799388 274.383106 
L 305.449998 273.999926 
L 306.100608 274.078805 
L 306.751219 273.285398 
L 307.401829 273.238583 
L 308.052439 272.199689 
L 308.70305 272.623292 
L 309.35366 272.767181 
L 310.00427 274.084411 
L 310.654881 274.495621 
L 311.305491 274.113523 
L 311.956101 273.880822 
L 312.606712 273.22619 
L 313.257322 273.900788 
L 314.558543 274.523553 
L 315.209153 274.435233 
L 315.859763 273.817188 
L 316.510373 274.074084 
L 317.160984 274.136046 
L 317.811594 274.595842 
L 318.462204 274.625151 
L 319.112815 274.310916 
L 319.763425 274.314162 
L 320.414035 274.084608 
L 321.064646 274.493458 
L 321.715256 274.508702 
L 322.365866 274.653378 
L 323.016477 274.592596 
L 323.667087 274.371107 
L 324.317697 274.500736 
L 324.968308 274.304916 
L 325.618918 274.651018 
L 326.269528 274.511456 
L 326.920138 274.720848 
L 328.221359 274.565353 
L 328.871969 274.633413 
L 329.52258 274.409071 
L 330.17319 274.670491 
L 330.8238 274.379172 
L 331.474411 274.729601 
L 332.125021 274.47182 
L 332.775631 274.768253 
L 333.426242 274.626725 
L 334.076852 274.768253 
L 338.631124 274.847427 
L 339.281734 274.548141 
L 339.932345 274.730388 
L 340.582955 274.20922 
L 341.233565 274.300097 
L 341.884176 273.25009 
L 342.534786 273.090563 
L 343.185396 271.657965 
L 344.486617 272.385968 
L 345.137227 274.132997 
L 345.787837 274.862573 
L 346.438448 274.135161 
L 347.089058 273.875216 
L 347.739668 273.107774 
L 348.390279 274.04684 
L 349.040889 274.735994 
L 349.691499 274.500736 
L 350.34211 274.610595 
L 350.99272 273.835777 
L 352.293941 274.731175 
L 352.944551 274.615119 
L 353.595161 274.970367 
L 354.245772 274.359502 
L 355.546992 274.666164 
L 356.197602 274.580499 
L 356.848213 275.016888 
L 357.498823 274.682785 
L 358.800044 274.68908 
L 359.450654 274.579712 
L 360.101264 274.920601 
L 362.703706 274.647674 
L 364.004926 274.808283 
L 364.655537 274.778777 
L 365.306147 274.972432 
L 365.956757 274.737961 
L 366.607367 274.942927 
L 367.257978 274.81202 
L 368.559198 274.911454 
L 369.209809 274.639215 
L 369.860419 274.932895 
L 370.511029 274.588859 
L 371.16164 274.921093 
L 371.81225 274.689178 
L 372.46286 274.86395 
L 373.764081 274.785268 
L 376.366522 274.76668 
L 377.017132 274.509194 
L 377.667743 274.674917 
L 378.318353 274.055299 
L 378.968963 274.269116 
L 379.619574 273.175834 
L 380.270184 273.361326 
L 380.920794 272.202935 
L 381.571405 272.726168 
L 382.222015 272.802391 
L 383.523236 274.675212 
L 384.173846 274.562697 
L 384.824456 274.75714 
L 385.475066 273.859086 
L 386.776287 273.93826 
L 387.426897 274.298229 
L 388.077508 274.876933 
L 388.728118 274.74396 
L 389.378728 274.769827 
L 390.029339 274.328816 
L 390.679949 274.261051 
L 391.330559 274.36678 
L 392.63178 274.852541 
L 393.28239 274.941156 
L 394.583611 274.662525 
L 395.884831 274.518734 
L 396.535442 274.775728 
L 397.186052 274.601547 
L 397.836662 274.980202 
L 398.487273 274.655345 
L 398.487273 274.655345 
" clip-path="url(#p2981496b1f)" style="fill: none; stroke: #ff7f0e; stroke-width: 1.5; stroke-linecap: square"/>
   </g>
   <g id="patch_3">
    <path d="M 57.6 307.584 
L 57.6 41.472 
" style="fill: none; stroke: #000000; stroke-width: 0.8; stroke-linejoin: miter; stroke-linecap: square"/>
   </g>
   <g id="patch_4">
    <path d="M 414.72 307.584 
L 414.72 41.472 
" style="fill: none; stroke: #000000; stroke-width: 0.8; stroke-linejoin: miter; stroke-linecap: square"/>
   </g>
   <g id="patch_5">
    <path d="M 57.6 307.584 
L 414.72 307.584 
" style="fill: none; stroke: #000000; stroke-width: 0.8; stroke-linejoin: miter; stroke-linecap: square"/>
   </g>
   <g id="patch_6">
    <path d="M 57.6 41.472 
L 414.72 41.472 
" style="fill: none; stroke: #000000; stroke-width: 0.8; stroke-linejoin: miter; stroke-linecap: square"/>
   </g>
   <g id="text_17">
    <!-- Losses of GCN on DGraph, 500 epochs -->
    <g transform="translate(120.373125 35.472) scale(0.12 -0.12)">
     <defs>
      <path id="DejaVuSans-4c" d="M 628 4666 
L 1259 4666 
L 1259 531 
L 3531 531 
L 3531 0 
L 628 0 
L 628 4666 
z
" transform="scale(0.015625)"/>
      <path id="DejaVuSans-20" transform="scale(0.015625)"/>
      <path id="DejaVuSans-66" d="M 2375 4863 
L 2375 4384 
L 1825 4384 
Q 1516 4384 1395 4259 
Q 1275 4134 1275 3809 
L 1275 3500 
L 2222 3500 
L 2222 3053 
L 1275 3053 
L 1275 0 
L 697 0 
L 697 3053 
L 147 3053 
L 147 3500 
L 697 3500 
L 697 3744 
Q 697 4328 969 4595 
Q 1241 4863 1831 4863 
L 2375 4863 
z
" transform="scale(0.015625)"/>
      <path id="DejaVuSans-47" d="M 3809 666 
L 3809 1919 
L 2778 1919 
L 2778 2438 
L 4434 2438 
L 4434 434 
Q 4069 175 3628 42 
Q 3188 -91 2688 -91 
Q 1594 -91 976 548 
Q 359 1188 359 2328 
Q 359 3472 976 4111 
Q 1594 4750 2688 4750 
Q 3144 4750 3555 4637 
Q 3966 4525 4313 4306 
L 4313 3634 
Q 3963 3931 3569 4081 
Q 3175 4231 2741 4231 
Q 1884 4231 1454 3753 
Q 1025 3275 1025 2328 
Q 1025 1384 1454 906 
Q 1884 428 2741 428 
Q 3075 428 3337 486 
Q 3600 544 3809 666 
z
" transform="scale(0.015625)"/>
      <path id="DejaVuSans-43" d="M 4122 4306 
L 4122 3641 
Q 3803 3938 3442 4084 
Q 3081 4231 2675 4231 
Q 1875 4231 1450 3742 
Q 1025 3253 1025 2328 
Q 1025 1406 1450 917 
Q 1875 428 2675 428 
Q 3081 428 3442 575 
Q 3803 722 4122 1019 
L 4122 359 
Q 3791 134 3420 21 
Q 3050 -91 2638 -91 
Q 1578 -91 968 557 
Q 359 1206 359 2328 
Q 359 3453 968 4101 
Q 1578 4750 2638 4750 
Q 3056 4750 3426 4639 
Q 3797 4528 4122 4306 
z
" transform="scale(0.015625)"/>
      <path id="DejaVuSans-4e" d="M 628 4666 
L 1478 4666 
L 3547 763 
L 3547 4666 
L 4159 4666 
L 4159 0 
L 3309 0 
L 1241 3903 
L 1241 0 
L 628 0 
L 628 4666 
z
" transform="scale(0.015625)"/>
      <path id="DejaVuSans-6e" d="M 3513 2113 
L 3513 0 
L 2938 0 
L 2938 2094 
Q 2938 2591 2744 2837 
Q 2550 3084 2163 3084 
Q 1697 3084 1428 2787 
Q 1159 2491 1159 1978 
L 1159 0 
L 581 0 
L 581 3500 
L 1159 3500 
L 1159 2956 
Q 1366 3272 1645 3428 
Q 1925 3584 2291 3584 
Q 2894 3584 3203 3211 
Q 3513 2838 3513 2113 
z
" transform="scale(0.015625)"/>
      <path id="DejaVuSans-44" d="M 1259 4147 
L 1259 519 
L 2022 519 
Q 2988 519 3436 956 
Q 3884 1394 3884 2338 
Q 3884 3275 3436 3711 
Q 2988 4147 2022 4147 
L 1259 4147 
z
M 628 4666 
L 1925 4666 
Q 3281 4666 3915 4102 
Q 4550 3538 4550 2338 
Q 4550 1131 3912 565 
Q 3275 0 1925 0 
L 628 0 
L 628 4666 
z
" transform="scale(0.015625)"/>
      <path id="DejaVuSans-72" d="M 2631 2963 
Q 2534 3019 2420 3045 
Q 2306 3072 2169 3072 
Q 1681 3072 1420 2755 
Q 1159 2438 1159 1844 
L 1159 0 
L 581 0 
L 581 3500 
L 1159 3500 
L 1159 2956 
Q 1341 3275 1631 3429 
Q 1922 3584 2338 3584 
Q 2397 3584 2469 3576 
Q 2541 3569 2628 3553 
L 2631 2963 
z
" transform="scale(0.015625)"/>
      <path id="DejaVuSans-61" d="M 2194 1759 
Q 1497 1759 1228 1600 
Q 959 1441 959 1056 
Q 959 750 1161 570 
Q 1363 391 1709 391 
Q 2188 391 2477 730 
Q 2766 1069 2766 1631 
L 2766 1759 
L 2194 1759 
z
M 3341 1997 
L 3341 0 
L 2766 0 
L 2766 531 
Q 2569 213 2275 61 
Q 1981 -91 1556 -91 
Q 1019 -91 701 211 
Q 384 513 384 1019 
Q 384 1609 779 1909 
Q 1175 2209 1959 2209 
L 2766 2209 
L 2766 2266 
Q 2766 2663 2505 2880 
Q 2244 3097 1772 3097 
Q 1472 3097 1187 3025 
Q 903 2953 641 2809 
L 641 3341 
Q 956 3463 1253 3523 
Q 1550 3584 1831 3584 
Q 2591 3584 2966 3190 
Q 3341 2797 3341 1997 
z
" transform="scale(0.015625)"/>
      <path id="DejaVuSans-2c" d="M 750 794 
L 1409 794 
L 1409 256 
L 897 -744 
L 494 -744 
L 750 256 
L 750 794 
z
" transform="scale(0.015625)"/>
     </defs>
     <use xlink:href="#DejaVuSans-4c"/>
     <use xlink:href="#DejaVuSans-6f" x="53.962891"/>
     <use xlink:href="#DejaVuSans-73" x="115.144531"/>
     <use xlink:href="#DejaVuSans-73" x="167.244141"/>
     <use xlink:href="#DejaVuSans-65" x="219.34375"/>
     <use xlink:href="#DejaVuSans-73" x="280.867188"/>
     <use xlink:href="#DejaVuSans-20" x="332.966797"/>
     <use xlink:href="#DejaVuSans-6f" x="364.753906"/>
     <use xlink:href="#DejaVuSans-66" x="425.935547"/>
     <use xlink:href="#DejaVuSans-20" x="461.140625"/>
     <use xlink:href="#DejaVuSans-47" x="492.927734"/>
     <use xlink:href="#DejaVuSans-43" x="570.417969"/>
     <use xlink:href="#DejaVuSans-4e" x="640.242188"/>
     <use xlink:href="#DejaVuSans-20" x="715.046875"/>
     <use xlink:href="#DejaVuSans-6f" x="746.833984"/>
     <use xlink:href="#DejaVuSans-6e" x="808.015625"/>
     <use xlink:href="#DejaVuSans-20" x="871.394531"/>
     <use xlink:href="#DejaVuSans-44" x="903.181641"/>
     <use xlink:href="#DejaVuSans-47" x="980.183594"/>
     <use xlink:href="#DejaVuSans-72" x="1057.673828"/>
     <use xlink:href="#DejaVuSans-61" x="1098.787109"/>
     <use xlink:href="#DejaVuSans-70" x="1160.066406"/>
     <use xlink:href="#DejaVuSans-68" x="1223.542969"/>
     <use xlink:href="#DejaVuSans-2c" x="1286.921875"/>
     <use xlink:href="#DejaVuSans-20" x="1318.708984"/>
     <use xlink:href="#DejaVuSans-35" x="1350.496094"/>
     <use xlink:href="#DejaVuSans-30" x="1414.119141"/>
     <use xlink:href="#DejaVuSans-30" x="1477.742188"/>
     <use xlink:href="#DejaVuSans-20" x="1541.365234"/>
     <use xlink:href="#DejaVuSans-65" x="1573.152344"/>
     <use xlink:href="#DejaVuSans-70" x="1634.675781"/>
     <use xlink:href="#DejaVuSans-6f" x="1698.152344"/>
     <use xlink:href="#DejaVuSans-63" x="1759.333984"/>
     <use xlink:href="#DejaVuSans-68" x="1814.314453"/>
     <use xlink:href="#DejaVuSans-73" x="1877.693359"/>
    </g>
   </g>
   <g id="legend_1">
    <g id="patch_7">
     <path d="M 329.23875 78.82825 
L 407.72 78.82825 
Q 409.72 78.82825 409.72 76.82825 
L 409.72 48.472 
Q 409.72 46.472 407.72 46.472 
L 329.23875 46.472 
Q 327.23875 46.472 327.23875 48.472 
L 327.23875 76.82825 
Q 327.23875 78.82825 329.23875 78.82825 
z
" style="fill: #ffffff; opacity: 0.8; stroke: #cccccc; stroke-linejoin: miter"/>
    </g>
    <g id="line2d_17">
     <path d="M 331.23875 54.570437 
L 341.23875 54.570437 
L 351.23875 54.570437 
" style="fill: none; stroke: #1f77b4; stroke-width: 1.5; stroke-linecap: square"/>
    </g>
    <g id="text_18">
     <!-- Train loss -->
     <g transform="translate(359.23875 58.070437) scale(0.1 -0.1)">
      <defs>
       <path id="DejaVuSans-54" d="M -19 4666 
L 3928 4666 
L 3928 4134 
L 2272 4134 
L 2272 0 
L 1638 0 
L 1638 4134 
L -19 4134 
L -19 4666 
z
" transform="scale(0.015625)"/>
       <path id="DejaVuSans-69" d="M 603 3500 
L 1178 3500 
L 1178 0 
L 603 0 
L 603 3500 
z
M 603 4863 
L 1178 4863 
L 1178 4134 
L 603 4134 
L 603 4863 
z
" transform="scale(0.015625)"/>
      </defs>
      <use xlink:href="#DejaVuSans-54"/>
      <use xlink:href="#DejaVuSans-72" x="46.333984"/>
      <use xlink:href="#DejaVuSans-61" x="87.447266"/>
      <use xlink:href="#DejaVuSans-69" x="148.726562"/>
      <use xlink:href="#DejaVuSans-6e" x="176.509766"/>
      <use xlink:href="#DejaVuSans-20" x="239.888672"/>
      <use xlink:href="#DejaVuSans-6c" x="271.675781"/>
      <use xlink:href="#DejaVuSans-6f" x="299.458984"/>
      <use xlink:href="#DejaVuSans-73" x="360.640625"/>
      <use xlink:href="#DejaVuSans-73" x="412.740234"/>
     </g>
    </g>
    <g id="line2d_18">
     <path d="M 331.23875 69.248562 
L 341.23875 69.248562 
L 351.23875 69.248562 
" style="fill: none; stroke: #ff7f0e; stroke-width: 1.5; stroke-linecap: square"/>
    </g>
    <g id="text_19">
     <!-- Val loss -->
     <g transform="translate(359.23875 72.748562) scale(0.1 -0.1)">
      <defs>
       <path id="DejaVuSans-56" d="M 1831 0 
L 50 4666 
L 709 4666 
L 2188 738 
L 3669 4666 
L 4325 4666 
L 2547 0 
L 1831 0 
z
" transform="scale(0.015625)"/>
      </defs>
      <use xlink:href="#DejaVuSans-56"/>
      <use xlink:href="#DejaVuSans-61" x="60.658203"/>
      <use xlink:href="#DejaVuSans-6c" x="121.9375"/>
      <use xlink:href="#DejaVuSans-20" x="149.720703"/>
      <use xlink:href="#DejaVuSans-6c" x="181.507812"/>
      <use xlink:href="#DejaVuSans-6f" x="209.291016"/>
      <use xlink:href="#DejaVuSans-73" x="270.472656"/>
      <use xlink:href="#DejaVuSans-73" x="322.572266"/>
     </g>
    </g>
   </g>
  </g>
 </g>
 <defs>
  <clipPath id="p2981496b1f">
   <rect x="57.6" y="41.472" width="357.12" height="266.112"/>
  </clipPath>
 </defs>
</svg>
