<?xml version="1.0" encoding="utf-8" standalone="no"?>
<!DOCTYPE svg PUBLIC "-//W3C//DTD SVG 1.1//EN"
  "http://www.w3.org/Graphics/SVG/1.1/DTD/svg11.dtd">
<svg xmlns:xlink="http://www.w3.org/1999/xlink" width="460.8pt" height="345.6pt" viewBox="0 0 460.8 345.6" xmlns="http://www.w3.org/2000/svg" version="1.1">
 <metadata>
  <rdf:RDF xmlns:dc="http://purl.org/dc/elements/1.1/" xmlns:cc="http://creativecommons.org/ns#" xmlns:rdf="http://www.w3.org/1999/02/22-rdf-syntax-ns#">
   <cc:Work>
    <dc:type rdf:resource="http://purl.org/dc/dcmitype/StillImage"/>
    <dc:date>2023-06-27T20:04:41.005260</dc:date>
    <dc:format>image/svg+xml</dc:format>
    <dc:creator>
     <cc:Agent>
      <dc:title>Matplotlib v3.7.1, https://matplotlib.org/</dc:title>
     </cc:Agent>
    </dc:creator>
   </cc:Work>
  </rdf:RDF>
 </metadata>
 <defs>
  <style type="text/css">*{stroke-linejoin: round; stroke-linecap: butt}</style>
 </defs>
 <g id="figure_1">
  <g id="patch_1">
   <path d="M 0 345.6 
L 460.8 345.6 
L 460.8 0 
L 0 0 
z
" style="fill: #ffffff"/>
  </g>
  <g id="axes_1">
   <g id="patch_2">
    <path d="M 57.6 307.584 
L 414.72 307.584 
L 414.72 41.472 
L 57.6 41.472 
z
" style="fill: #ffffff"/>
   </g>
   <g id="matplotlib.axis_1">
    <g id="xtick_1">
     <g id="line2d_1">
      <defs>
       <path id="m7ccf61f9b2" d="M 0 0 
L 0 3.5 
" style="stroke: #000000; stroke-width: 0.8"/>
      </defs>
      <g>
       <use xlink:href="#m7ccf61f9b2" x="73.832727" y="307.584" style="stroke: #000000; stroke-width: 0.8"/>
      </g>
     </g>
     <g id="text_1">
      <!-- 0 -->
      <g transform="translate(70.651477 322.182437) scale(0.1 -0.1)">
       <defs>
        <path id="DejaVuSans-30" d="M 2034 4250 
Q 1547 4250 1301 3770 
Q 1056 3291 1056 2328 
Q 1056 1369 1301 889 
Q 1547 409 2034 409 
Q 2525 409 2770 889 
Q 3016 1369 3016 2328 
Q 3016 3291 2770 3770 
Q 2525 4250 2034 4250 
z
M 2034 4750 
Q 2819 4750 3233 4129 
Q 3647 3509 3647 2328 
Q 3647 1150 3233 529 
Q 2819 -91 2034 -91 
Q 1250 -91 836 529 
Q 422 1150 422 2328 
Q 422 3509 836 4129 
Q 1250 4750 2034 4750 
z
" transform="scale(0.015625)"/>
       </defs>
       <use xlink:href="#DejaVuSans-30"/>
      </g>
     </g>
    </g>
    <g id="xtick_2">
     <g id="line2d_2">
      <g>
       <use xlink:href="#m7ccf61f9b2" x="114.618474" y="307.584" style="stroke: #000000; stroke-width: 0.8"/>
      </g>
     </g>
     <g id="text_2">
      <!-- 25 -->
      <g transform="translate(108.255974 322.182437) scale(0.1 -0.1)">
       <defs>
        <path id="DejaVuSans-32" d="M 1228 531 
L 3431 531 
L 3431 0 
L 469 0 
L 469 531 
Q 828 903 1448 1529 
Q 2069 2156 2228 2338 
Q 2531 2678 2651 2914 
Q 2772 3150 2772 3378 
Q 2772 3750 2511 3984 
Q 2250 4219 1831 4219 
Q 1534 4219 1204 4116 
Q 875 4013 500 3803 
L 500 4441 
Q 881 4594 1212 4672 
Q 1544 4750 1819 4750 
Q 2544 4750 2975 4387 
Q 3406 4025 3406 3419 
Q 3406 3131 3298 2873 
Q 3191 2616 2906 2266 
Q 2828 2175 2409 1742 
Q 1991 1309 1228 531 
z
" transform="scale(0.015625)"/>
        <path id="DejaVuSans-35" d="M 691 4666 
L 3169 4666 
L 3169 4134 
L 1269 4134 
L 1269 2991 
Q 1406 3038 1543 3061 
Q 1681 3084 1819 3084 
Q 2600 3084 3056 2656 
Q 3513 2228 3513 1497 
Q 3513 744 3044 326 
Q 2575 -91 1722 -91 
Q 1428 -91 1123 -41 
Q 819 9 494 109 
L 494 744 
Q 775 591 1075 516 
Q 1375 441 1709 441 
Q 2250 441 2565 725 
Q 2881 1009 2881 1497 
Q 2881 1984 2565 2268 
Q 2250 2553 1709 2553 
Q 1456 2553 1204 2497 
Q 953 2441 691 2322 
L 691 4666 
z
" transform="scale(0.015625)"/>
       </defs>
       <use xlink:href="#DejaVuSans-32"/>
       <use xlink:href="#DejaVuSans-35" x="63.623047"/>
      </g>
     </g>
    </g>
    <g id="xtick_3">
     <g id="line2d_3">
      <g>
       <use xlink:href="#m7ccf61f9b2" x="155.404221" y="307.584" style="stroke: #000000; stroke-width: 0.8"/>
      </g>
     </g>
     <g id="text_3">
      <!-- 50 -->
      <g transform="translate(149.041721 322.182437) scale(0.1 -0.1)">
       <use xlink:href="#DejaVuSans-35"/>
       <use xlink:href="#DejaVuSans-30" x="63.623047"/>
      </g>
     </g>
    </g>
    <g id="xtick_4">
     <g id="line2d_4">
      <g>
       <use xlink:href="#m7ccf61f9b2" x="196.189968" y="307.584" style="stroke: #000000; stroke-width: 0.8"/>
      </g>
     </g>
     <g id="text_4">
      <!-- 75 -->
      <g transform="translate(189.827468 322.182437) scale(0.1 -0.1)">
       <defs>
        <path id="DejaVuSans-37" d="M 525 4666 
L 3525 4666 
L 3525 4397 
L 1831 0 
L 1172 0 
L 2766 4134 
L 525 4134 
L 525 4666 
z
" transform="scale(0.015625)"/>
       </defs>
       <use xlink:href="#DejaVuSans-37"/>
       <use xlink:href="#DejaVuSans-35" x="63.623047"/>
      </g>
     </g>
    </g>
    <g id="xtick_5">
     <g id="line2d_5">
      <g>
       <use xlink:href="#m7ccf61f9b2" x="236.975715" y="307.584" style="stroke: #000000; stroke-width: 0.8"/>
      </g>
     </g>
     <g id="text_5">
      <!-- 100 -->
      <g transform="translate(227.431965 322.182437) scale(0.1 -0.1)">
       <defs>
        <path id="DejaVuSans-31" d="M 794 531 
L 1825 531 
L 1825 4091 
L 703 3866 
L 703 4441 
L 1819 4666 
L 2450 4666 
L 2450 531 
L 3481 531 
L 3481 0 
L 794 0 
L 794 531 
z
" transform="scale(0.015625)"/>
       </defs>
       <use xlink:href="#DejaVuSans-31"/>
       <use xlink:href="#DejaVuSans-30" x="63.623047"/>
       <use xlink:href="#DejaVuSans-30" x="127.246094"/>
      </g>
     </g>
    </g>
    <g id="xtick_6">
     <g id="line2d_6">
      <g>
       <use xlink:href="#m7ccf61f9b2" x="277.761462" y="307.584" style="stroke: #000000; stroke-width: 0.8"/>
      </g>
     </g>
     <g id="text_6">
      <!-- 125 -->
      <g transform="translate(268.217712 322.182437) scale(0.1 -0.1)">
       <use xlink:href="#DejaVuSans-31"/>
       <use xlink:href="#DejaVuSans-32" x="63.623047"/>
       <use xlink:href="#DejaVuSans-35" x="127.246094"/>
      </g>
     </g>
    </g>
    <g id="xtick_7">
     <g id="line2d_7">
      <g>
       <use xlink:href="#m7ccf61f9b2" x="318.547209" y="307.584" style="stroke: #000000; stroke-width: 0.8"/>
      </g>
     </g>
     <g id="text_7">
      <!-- 150 -->
      <g transform="translate(309.003459 322.182437) scale(0.1 -0.1)">
       <use xlink:href="#DejaVuSans-31"/>
       <use xlink:href="#DejaVuSans-35" x="63.623047"/>
       <use xlink:href="#DejaVuSans-30" x="127.246094"/>
      </g>
     </g>
    </g>
    <g id="xtick_8">
     <g id="line2d_8">
      <g>
       <use xlink:href="#m7ccf61f9b2" x="359.332956" y="307.584" style="stroke: #000000; stroke-width: 0.8"/>
      </g>
     </g>
     <g id="text_8">
      <!-- 175 -->
      <g transform="translate(349.789206 322.182437) scale(0.1 -0.1)">
       <use xlink:href="#DejaVuSans-31"/>
       <use xlink:href="#DejaVuSans-37" x="63.623047"/>
       <use xlink:href="#DejaVuSans-35" x="127.246094"/>
      </g>
     </g>
    </g>
    <g id="xtick_9">
     <g id="line2d_9">
      <g>
       <use xlink:href="#m7ccf61f9b2" x="400.118703" y="307.584" style="stroke: #000000; stroke-width: 0.8"/>
      </g>
     </g>
     <g id="text_9">
      <!-- 200 -->
      <g transform="translate(390.574953 322.182437) scale(0.1 -0.1)">
       <use xlink:href="#DejaVuSans-32"/>
       <use xlink:href="#DejaVuSans-30" x="63.623047"/>
       <use xlink:href="#DejaVuSans-30" x="127.246094"/>
      </g>
     </g>
    </g>
    <g id="text_10">
     <!-- epoch -->
     <g transform="translate(220.931875 335.860562) scale(0.1 -0.1)">
      <defs>
       <path id="DejaVuSans-65" d="M 3597 1894 
L 3597 1613 
L 953 1613 
Q 991 1019 1311 708 
Q 1631 397 2203 397 
Q 2534 397 2845 478 
Q 3156 559 3463 722 
L 3463 178 
Q 3153 47 2828 -22 
Q 2503 -91 2169 -91 
Q 1331 -91 842 396 
Q 353 884 353 1716 
Q 353 2575 817 3079 
Q 1281 3584 2069 3584 
Q 2775 3584 3186 3129 
Q 3597 2675 3597 1894 
z
M 3022 2063 
Q 3016 2534 2758 2815 
Q 2500 3097 2075 3097 
Q 1594 3097 1305 2825 
Q 1016 2553 972 2059 
L 3022 2063 
z
" transform="scale(0.015625)"/>
       <path id="DejaVuSans-70" d="M 1159 525 
L 1159 -1331 
L 581 -1331 
L 581 3500 
L 1159 3500 
L 1159 2969 
Q 1341 3281 1617 3432 
Q 1894 3584 2278 3584 
Q 2916 3584 3314 3078 
Q 3713 2572 3713 1747 
Q 3713 922 3314 415 
Q 2916 -91 2278 -91 
Q 1894 -91 1617 61 
Q 1341 213 1159 525 
z
M 3116 1747 
Q 3116 2381 2855 2742 
Q 2594 3103 2138 3103 
Q 1681 3103 1420 2742 
Q 1159 2381 1159 1747 
Q 1159 1113 1420 752 
Q 1681 391 2138 391 
Q 2594 391 2855 752 
Q 3116 1113 3116 1747 
z
" transform="scale(0.015625)"/>
       <path id="DejaVuSans-6f" d="M 1959 3097 
Q 1497 3097 1228 2736 
Q 959 2375 959 1747 
Q 959 1119 1226 758 
Q 1494 397 1959 397 
Q 2419 397 2687 759 
Q 2956 1122 2956 1747 
Q 2956 2369 2687 2733 
Q 2419 3097 1959 3097 
z
M 1959 3584 
Q 2709 3584 3137 3096 
Q 3566 2609 3566 1747 
Q 3566 888 3137 398 
Q 2709 -91 1959 -91 
Q 1206 -91 779 398 
Q 353 888 353 1747 
Q 353 2609 779 3096 
Q 1206 3584 1959 3584 
z
" transform="scale(0.015625)"/>
       <path id="DejaVuSans-63" d="M 3122 3366 
L 3122 2828 
Q 2878 2963 2633 3030 
Q 2388 3097 2138 3097 
Q 1578 3097 1268 2742 
Q 959 2388 959 1747 
Q 959 1106 1268 751 
Q 1578 397 2138 397 
Q 2388 397 2633 464 
Q 2878 531 3122 666 
L 3122 134 
Q 2881 22 2623 -34 
Q 2366 -91 2075 -91 
Q 1284 -91 818 406 
Q 353 903 353 1747 
Q 353 2603 823 3093 
Q 1294 3584 2113 3584 
Q 2378 3584 2631 3529 
Q 2884 3475 3122 3366 
z
" transform="scale(0.015625)"/>
       <path id="DejaVuSans-68" d="M 3513 2113 
L 3513 0 
L 2938 0 
L 2938 2094 
Q 2938 2591 2744 2837 
Q 2550 3084 2163 3084 
Q 1697 3084 1428 2787 
Q 1159 2491 1159 1978 
L 1159 0 
L 581 0 
L 581 4863 
L 1159 4863 
L 1159 2956 
Q 1366 3272 1645 3428 
Q 1925 3584 2291 3584 
Q 2894 3584 3203 3211 
Q 3513 2838 3513 2113 
z
" transform="scale(0.015625)"/>
      </defs>
      <use xlink:href="#DejaVuSans-65"/>
      <use xlink:href="#DejaVuSans-70" x="61.523438"/>
      <use xlink:href="#DejaVuSans-6f" x="125"/>
      <use xlink:href="#DejaVuSans-63" x="186.181641"/>
      <use xlink:href="#DejaVuSans-68" x="241.162109"/>
     </g>
    </g>
   </g>
   <g id="matplotlib.axis_2">
    <g id="ytick_1">
     <g id="line2d_10">
      <defs>
       <path id="mae1e22f106" d="M 0 0 
L -3.5 0 
" style="stroke: #000000; stroke-width: 0.8"/>
      </defs>
      <g>
       <use xlink:href="#mae1e22f106" x="57.6" y="296.081781" style="stroke: #000000; stroke-width: 0.8"/>
      </g>
     </g>
     <g id="text_11">
      <!-- 0.575 -->
      <g transform="translate(21.971875 299.880999) scale(0.1 -0.1)">
       <defs>
        <path id="DejaVuSans-2e" d="M 684 794 
L 1344 794 
L 1344 0 
L 684 0 
L 684 794 
z
" transform="scale(0.015625)"/>
       </defs>
       <use xlink:href="#DejaVuSans-30"/>
       <use xlink:href="#DejaVuSans-2e" x="63.623047"/>
       <use xlink:href="#DejaVuSans-35" x="95.410156"/>
       <use xlink:href="#DejaVuSans-37" x="159.033203"/>
       <use xlink:href="#DejaVuSans-35" x="222.65625"/>
      </g>
     </g>
    </g>
    <g id="ytick_2">
     <g id="line2d_11">
      <g>
       <use xlink:href="#mae1e22f106" x="57.6" y="263.61455" style="stroke: #000000; stroke-width: 0.8"/>
      </g>
     </g>
     <g id="text_12">
      <!-- 0.600 -->
      <g transform="translate(21.971875 267.413769) scale(0.1 -0.1)">
       <defs>
        <path id="DejaVuSans-36" d="M 2113 2584 
Q 1688 2584 1439 2293 
Q 1191 2003 1191 1497 
Q 1191 994 1439 701 
Q 1688 409 2113 409 
Q 2538 409 2786 701 
Q 3034 994 3034 1497 
Q 3034 2003 2786 2293 
Q 2538 2584 2113 2584 
z
M 3366 4563 
L 3366 3988 
Q 3128 4100 2886 4159 
Q 2644 4219 2406 4219 
Q 1781 4219 1451 3797 
Q 1122 3375 1075 2522 
Q 1259 2794 1537 2939 
Q 1816 3084 2150 3084 
Q 2853 3084 3261 2657 
Q 3669 2231 3669 1497 
Q 3669 778 3244 343 
Q 2819 -91 2113 -91 
Q 1303 -91 875 529 
Q 447 1150 447 2328 
Q 447 3434 972 4092 
Q 1497 4750 2381 4750 
Q 2619 4750 2861 4703 
Q 3103 4656 3366 4563 
z
" transform="scale(0.015625)"/>
       </defs>
       <use xlink:href="#DejaVuSans-30"/>
       <use xlink:href="#DejaVuSans-2e" x="63.623047"/>
       <use xlink:href="#DejaVuSans-36" x="95.410156"/>
       <use xlink:href="#DejaVuSans-30" x="159.033203"/>
       <use xlink:href="#DejaVuSans-30" x="222.65625"/>
      </g>
     </g>
    </g>
    <g id="ytick_3">
     <g id="line2d_12">
      <g>
       <use xlink:href="#mae1e22f106" x="57.6" y="231.147319" style="stroke: #000000; stroke-width: 0.8"/>
      </g>
     </g>
     <g id="text_13">
      <!-- 0.625 -->
      <g transform="translate(21.971875 234.946538) scale(0.1 -0.1)">
       <use xlink:href="#DejaVuSans-30"/>
       <use xlink:href="#DejaVuSans-2e" x="63.623047"/>
       <use xlink:href="#DejaVuSans-36" x="95.410156"/>
       <use xlink:href="#DejaVuSans-32" x="159.033203"/>
       <use xlink:href="#DejaVuSans-35" x="222.65625"/>
      </g>
     </g>
    </g>
    <g id="ytick_4">
     <g id="line2d_13">
      <g>
       <use xlink:href="#mae1e22f106" x="57.6" y="198.680088" style="stroke: #000000; stroke-width: 0.8"/>
      </g>
     </g>
     <g id="text_14">
      <!-- 0.650 -->
      <g transform="translate(21.971875 202.479307) scale(0.1 -0.1)">
       <use xlink:href="#DejaVuSans-30"/>
       <use xlink:href="#DejaVuSans-2e" x="63.623047"/>
       <use xlink:href="#DejaVuSans-36" x="95.410156"/>
       <use xlink:href="#DejaVuSans-35" x="159.033203"/>
       <use xlink:href="#DejaVuSans-30" x="222.65625"/>
      </g>
     </g>
    </g>
    <g id="ytick_5">
     <g id="line2d_14">
      <g>
       <use xlink:href="#mae1e22f106" x="57.6" y="166.212858" style="stroke: #000000; stroke-width: 0.8"/>
      </g>
     </g>
     <g id="text_15">
      <!-- 0.675 -->
      <g transform="translate(21.971875 170.012077) scale(0.1 -0.1)">
       <use xlink:href="#DejaVuSans-30"/>
       <use xlink:href="#DejaVuSans-2e" x="63.623047"/>
       <use xlink:href="#DejaVuSans-36" x="95.410156"/>
       <use xlink:href="#DejaVuSans-37" x="159.033203"/>
       <use xlink:href="#DejaVuSans-35" x="222.65625"/>
      </g>
     </g>
    </g>
    <g id="ytick_6">
     <g id="line2d_15">
      <g>
       <use xlink:href="#mae1e22f106" x="57.6" y="133.745627" style="stroke: #000000; stroke-width: 0.8"/>
      </g>
     </g>
     <g id="text_16">
      <!-- 0.700 -->
      <g transform="translate(21.971875 137.544846) scale(0.1 -0.1)">
       <use xlink:href="#DejaVuSans-30"/>
       <use xlink:href="#DejaVuSans-2e" x="63.623047"/>
       <use xlink:href="#DejaVuSans-37" x="95.410156"/>
       <use xlink:href="#DejaVuSans-30" x="159.033203"/>
       <use xlink:href="#DejaVuSans-30" x="222.65625"/>
      </g>
     </g>
    </g>
    <g id="ytick_7">
     <g id="line2d_16">
      <g>
       <use xlink:href="#mae1e22f106" x="57.6" y="101.278396" style="stroke: #000000; stroke-width: 0.8"/>
      </g>
     </g>
     <g id="text_17">
      <!-- 0.725 -->
      <g transform="translate(21.971875 105.077615) scale(0.1 -0.1)">
       <use xlink:href="#DejaVuSans-30"/>
       <use xlink:href="#DejaVuSans-2e" x="63.623047"/>
       <use xlink:href="#DejaVuSans-37" x="95.410156"/>
       <use xlink:href="#DejaVuSans-32" x="159.033203"/>
       <use xlink:href="#DejaVuSans-35" x="222.65625"/>
      </g>
     </g>
    </g>
    <g id="ytick_8">
     <g id="line2d_17">
      <g>
       <use xlink:href="#mae1e22f106" x="57.6" y="68.811166" style="stroke: #000000; stroke-width: 0.8"/>
      </g>
     </g>
     <g id="text_18">
      <!-- 0.750 -->
      <g transform="translate(21.971875 72.610384) scale(0.1 -0.1)">
       <use xlink:href="#DejaVuSans-30"/>
       <use xlink:href="#DejaVuSans-2e" x="63.623047"/>
       <use xlink:href="#DejaVuSans-37" x="95.410156"/>
       <use xlink:href="#DejaVuSans-35" x="159.033203"/>
       <use xlink:href="#DejaVuSans-30" x="222.65625"/>
      </g>
     </g>
    </g>
    <g id="text_19">
     <!-- loss -->
     <g transform="translate(15.892188 184.185812) rotate(-90) scale(0.1 -0.1)">
      <defs>
       <path id="DejaVuSans-6c" d="M 603 4863 
L 1178 4863 
L 1178 0 
L 603 0 
L 603 4863 
z
" transform="scale(0.015625)"/>
       <path id="DejaVuSans-73" d="M 2834 3397 
L 2834 2853 
Q 2591 2978 2328 3040 
Q 2066 3103 1784 3103 
Q 1356 3103 1142 2972 
Q 928 2841 928 2578 
Q 928 2378 1081 2264 
Q 1234 2150 1697 2047 
L 1894 2003 
Q 2506 1872 2764 1633 
Q 3022 1394 3022 966 
Q 3022 478 2636 193 
Q 2250 -91 1575 -91 
Q 1294 -91 989 -36 
Q 684 19 347 128 
L 347 722 
Q 666 556 975 473 
Q 1284 391 1588 391 
Q 1994 391 2212 530 
Q 2431 669 2431 922 
Q 2431 1156 2273 1281 
Q 2116 1406 1581 1522 
L 1381 1569 
Q 847 1681 609 1914 
Q 372 2147 372 2553 
Q 372 3047 722 3315 
Q 1072 3584 1716 3584 
Q 2034 3584 2315 3537 
Q 2597 3491 2834 3397 
z
" transform="scale(0.015625)"/>
      </defs>
      <use xlink:href="#DejaVuSans-6c"/>
      <use xlink:href="#DejaVuSans-6f" x="27.783203"/>
      <use xlink:href="#DejaVuSans-73" x="88.964844"/>
      <use xlink:href="#DejaVuSans-73" x="141.064453"/>
     </g>
    </g>
   </g>
   <g id="line2d_18">
    <path d="M 73.832727 155.100318 
L 75.464157 166.149136 
L 77.095587 185.880722 
L 78.727017 218.513961 
L 80.358447 232.156718 
L 81.989877 230.663675 
L 83.621307 231.643659 
L 85.252736 241.502253 
L 86.884166 246.226148 
L 88.515596 246.525716 
L 90.147026 244.032175 
L 91.778456 249.603919 
L 93.409886 253.005378 
L 95.041316 255.896718 
L 96.672746 259.640087 
L 98.304175 258.039137 
L 99.935605 259.301505 
L 101.567035 261.036139 
L 103.198465 263.496394 
L 104.829895 265.465807 
L 106.461325 264.700165 
L 108.092755 265.767697 
L 109.724185 264.828894 
L 111.355614 266.209697 
L 112.987044 267.917315 
L 114.618474 268.640924 
L 116.249904 269.111022 
L 117.881334 269.940371 
L 119.512764 269.559679 
L 121.144194 272.606609 
L 122.775624 273.570415 
L 124.407053 272.635405 
L 126.038483 274.732617 
L 127.669913 274.521681 
L 129.301343 275.590916 
L 130.932773 275.926634 
L 132.564203 275.266345 
L 134.195633 277.143564 
L 135.827063 277.773974 
L 137.458492 276.813496 
L 140.721352 278.536751 
L 142.352782 278.311417 
L 143.984212 279.367493 
L 145.615642 279.418195 
L 147.247072 281.369107 
L 148.878502 280.830503 
L 150.509931 282.115474 
L 152.141361 281.243861 
L 153.772791 281.540101 
L 155.404221 280.81982 
L 157.035651 282.643938 
L 158.667081 281.759243 
L 160.298511 282.75765 
L 163.56137 283.605886 
L 165.1928 283.226897 
L 166.82423 283.772622 
L 168.45566 283.85003 
L 170.08709 284.605764 
L 171.71852 284.057638 
L 173.34995 284.312852 
L 174.98138 284.333752 
L 176.61281 284.982431 
L 178.244239 285.460192 
L 179.875669 285.434725 
L 181.507099 285.83237 
L 183.138529 284.947829 
L 184.769959 285.505863 
L 186.401389 286.612177 
L 188.032819 286.810805 
L 189.664249 287.751699 
L 191.295678 287.320382 
L 192.927108 287.458013 
L 194.558538 286.788125 
L 196.189968 287.010208 
L 197.821398 288.353545 
L 199.452828 287.178648 
L 201.084258 288.272344 
L 204.347117 288.795002 
L 205.978547 288.527094 
L 207.609977 288.417716 
L 209.241407 288.587007 
L 210.872837 288.898187 
L 212.504267 287.622273 
L 214.135697 288.813735 
L 215.767127 287.673749 
L 217.398556 288.314299 
L 219.029986 289.404048 
L 222.292846 288.832778 
L 223.924276 289.321067 
L 225.555706 290.679266 
L 227.187136 290.355933 
L 228.818566 289.167644 
L 230.449995 289.743482 
L 232.081425 290.441856 
L 233.712855 289.964326 
L 235.344285 289.117019 
L 236.975715 291.453268 
L 238.607145 290.393398 
L 240.238575 290.666726 
L 241.870005 289.853169 
L 243.501434 291.175451 
L 245.132864 290.520734 
L 246.764294 290.541557 
L 248.395724 290.730123 
L 250.027154 289.819728 
L 251.658584 289.996683 
L 253.290014 289.565985 
L 254.921444 291.139533 
L 256.552873 290.120071 
L 258.184303 291.483457 
L 259.815733 290.491165 
L 261.447163 291.065996 
L 263.078593 290.759847 
L 264.710023 290.870928 
L 266.341453 291.376092 
L 267.972883 290.30136 
L 269.604312 292.130742 
L 271.235742 290.930067 
L 272.867172 291.654993 
L 274.498602 291.50575 
L 276.130032 290.576933 
L 277.761462 290.828353 
L 279.392892 292.103417 
L 281.024322 292.388742 
L 282.655751 290.902201 
L 284.287181 291.937454 
L 285.918611 291.782561 
L 287.550041 291.962844 
L 289.181471 292.408713 
L 290.812901 291.079465 
L 292.444331 292.96876 
L 294.075761 291.71003 
L 295.70719 292.529083 
L 298.97005 291.474245 
L 300.60148 291.472 
L 302.23291 291.967333 
L 305.49577 292.232068 
L 307.1272 293.041291 
L 308.75863 291.224063 
L 312.021489 293.060565 
L 313.652919 291.954793 
L 315.284349 291.878469 
L 316.915779 292.78329 
L 318.547209 292.585668 
L 320.178639 292.274798 
L 321.810069 292.851022 
L 323.441498 292.523122 
L 325.072928 291.89248 
L 326.704358 292.354528 
L 328.335788 291.801835 
L 329.967218 292.747296 
L 331.598648 291.988543 
L 333.230078 293.818466 
L 334.861508 292.593022 
L 338.124367 293.409056 
L 339.755797 293.610394 
L 341.387227 293.480271 
L 343.018657 292.746986 
L 344.650087 292.498739 
L 346.281517 293.066758 
L 349.544376 293.496449 
L 351.175806 293.065597 
L 352.807236 293.600408 
L 354.438666 294.555622 
L 356.070096 292.830199 
L 357.701526 293.828994 
L 359.332956 293.725344 
L 360.964386 294.394381 
L 362.595815 294.684506 
L 364.227245 292.429923 
L 365.858675 294.04442 
L 367.490105 293.476323 
L 369.121535 294.858906 
L 370.752965 294.026074 
L 372.384395 294.056496 
L 374.015825 293.653587 
L 375.647254 293.910969 
L 377.278684 293.711798 
L 378.910114 294.357612 
L 380.541544 294.81161 
L 382.172974 294.3974 
L 383.804404 293.377319 
L 385.435834 295.044298 
L 387.067264 293.991473 
L 388.698693 295.488 
L 390.330123 293.895255 
L 391.961553 294.499269 
L 393.592983 294.490444 
L 395.224413 294.873226 
L 396.855843 293.849352 
L 398.487273 293.765597 
L 398.487273 293.765597 
" clip-path="url(#p1e37308997)" style="fill: none; stroke: #1f77b4; stroke-width: 1.5; stroke-linecap: square"/>
   </g>
   <g id="line2d_19">
    <path d="M 73.832727 53.568 
L 75.464157 78.277843 
L 77.095587 158.089347 
L 78.727017 205.738482 
L 80.358447 213.812824 
L 81.989877 211.819803 
L 83.621307 207.491617 
L 85.252736 187.477569 
L 86.884166 154.992101 
L 88.515596 133.106795 
L 90.147026 134.579326 
L 91.778456 152.29041 
L 93.409886 174.209931 
L 95.041316 191.889433 
L 96.672746 202.591154 
L 98.304175 208.423995 
L 99.935605 210.368327 
L 101.567035 207.592789 
L 103.198465 199.562802 
L 104.829895 187.858571 
L 106.461325 176.975174 
L 108.092755 171.144113 
L 109.724185 172.916212 
L 111.355614 180.133416 
L 112.987044 189.359433 
L 114.618474 196.820859 
L 116.249904 201.036029 
L 117.881334 201.160424 
L 119.512764 196.972036 
L 121.144194 188.068579 
L 122.775624 176.353898 
L 124.407053 166.341649 
L 126.038483 160.988273 
L 127.669913 162.023913 
L 130.932773 170.536151 
L 132.564203 172.804358 
L 134.195633 171.502821 
L 135.827063 166.66026 
L 137.458492 161.039517 
L 139.089922 157.324324 
L 140.721352 156.894401 
L 142.352782 158.616804 
L 143.984212 159.837759 
L 145.615642 159.638976 
L 147.247072 156.801511 
L 150.509931 148.317372 
L 152.141361 146.455325 
L 153.772791 146.852582 
L 155.404221 148.06866 
L 157.035651 146.748701 
L 158.667081 142.961596 
L 160.298511 138.016314 
L 161.929941 133.738134 
L 163.56137 132.852355 
L 165.1928 135.157021 
L 166.82423 137.724022 
L 168.45566 137.898654 
L 170.08709 134.763866 
L 171.71852 130.321426 
L 173.34995 128.184039 
L 174.98138 129.288185 
L 176.61281 132.399364 
L 178.244239 133.024433 
L 179.875669 130.38792 
L 181.507099 126.496314 
L 183.138529 125.409894 
L 184.769959 127.145844 
L 186.401389 128.572085 
L 188.032819 127.379539 
L 191.295678 119.315802 
L 192.927108 118.683766 
L 196.189968 123.78278 
L 197.821398 122.505472 
L 201.084258 116.83782 
L 202.715688 115.118513 
L 204.347117 114.270277 
L 205.978547 114.07397 
L 207.609977 115.177807 
L 209.241407 116.117849 
L 210.872837 115.369005 
L 212.504267 113.483503 
L 214.135697 110.554155 
L 215.767127 110.677311 
L 217.398556 112.693091 
L 219.029986 113.916987 
L 220.661416 113.655735 
L 223.924276 110.57521 
L 225.555706 108.128269 
L 227.187136 107.74928 
L 228.818566 109.743927 
L 230.449995 111.347044 
L 232.081425 109.730225 
L 233.712855 107.913384 
L 235.344285 107.873597 
L 236.975715 107.461013 
L 238.607145 108.025858 
L 240.238575 107.058569 
L 241.870005 106.309105 
L 243.501434 104.30486 
L 245.132864 104.878917 
L 246.764294 106.741583 
L 248.395724 107.57008 
L 250.027154 107.686811 
L 251.658584 105.954732 
L 253.290014 106.562384 
L 254.921444 106.558514 
L 256.552873 107.981658 
L 258.184303 106.857076 
L 259.815733 106.810012 
L 261.447163 106.631122 
L 263.078593 106.865514 
L 264.710023 106.060084 
L 266.341453 104.308111 
L 267.972883 104.703433 
L 269.604312 104.752742 
L 271.235742 105.01709 
L 272.867172 105.034352 
L 274.498602 103.574284 
L 276.130032 103.224787 
L 277.761462 104.105612 
L 279.392892 105.276716 
L 281.024322 104.300293 
L 282.655751 104.755606 
L 284.287181 102.249525 
L 285.918611 101.462519 
L 287.550041 102.684945 
L 289.181471 104.841839 
L 290.812901 105.785286 
L 292.444331 101.590939 
L 294.075761 100.32919 
L 295.70719 100.578675 
L 297.33862 103.37194 
L 298.97005 107.955494 
L 300.60148 109.756157 
L 302.23291 106.197096 
L 303.86434 101.351361 
L 305.49577 100.840159 
L 307.1272 103.411727 
L 308.75863 106.895083 
L 310.390059 105.716006 
L 312.021489 102.008322 
L 313.652919 103.594565 
L 315.284349 105.941108 
L 316.915779 105.332295 
L 318.547209 103.740711 
L 320.178639 105.709117 
L 321.810069 104.924433 
L 323.441498 102.144637 
L 325.072928 105.676992 
L 326.704358 107.066852 
L 328.335788 105.647655 
L 329.967218 103.517544 
L 331.598648 104.617278 
L 333.230078 105.381294 
L 334.861508 104.016515 
L 336.492937 104.550475 
L 338.124367 105.365426 
L 339.755797 103.303124 
L 341.387227 103.021669 
L 343.018657 106.763722 
L 344.650087 106.15785 
L 346.281517 101.46817 
L 347.912947 100.64811 
L 349.544376 105.019877 
L 351.175806 106.565093 
L 352.807236 103.246307 
L 354.438666 101.521117 
L 356.070096 105.690074 
L 357.701526 106.799175 
L 359.332956 105.331057 
L 360.964386 102.949138 
L 362.595815 98.696657 
L 364.227245 100.359069 
L 367.490105 104.985817 
L 369.121535 104.338997 
L 370.752965 99.593427 
L 372.384395 99.019061 
L 374.015825 103.566543 
L 375.647254 105.942889 
L 377.278684 104.798722 
L 378.910114 100.514582 
L 380.541544 97.263295 
L 382.172974 99.958406 
L 383.804404 105.706717 
L 385.435834 103.000769 
L 387.067264 99.602484 
L 388.698693 96.977195 
L 390.330123 101.239739 
L 391.961553 108.584434 
L 393.592983 105.371154 
L 395.224413 96.758208 
L 396.855843 96.61392 
L 398.487273 105.903178 
L 398.487273 105.903178 
" clip-path="url(#p1e37308997)" style="fill: none; stroke: #ff7f0e; stroke-width: 1.5; stroke-linecap: square"/>
   </g>
   <g id="patch_3">
    <path d="M 57.6 307.584 
L 57.6 41.472 
" style="fill: none; stroke: #000000; stroke-width: 0.8; stroke-linejoin: miter; stroke-linecap: square"/>
   </g>
   <g id="patch_4">
    <path d="M 414.72 307.584 
L 414.72 41.472 
" style="fill: none; stroke: #000000; stroke-width: 0.8; stroke-linejoin: miter; stroke-linecap: square"/>
   </g>
   <g id="patch_5">
    <path d="M 57.6 307.584 
L 414.72 307.584 
" style="fill: none; stroke: #000000; stroke-width: 0.8; stroke-linejoin: miter; stroke-linecap: square"/>
   </g>
   <g id="patch_6">
    <path d="M 57.6 41.472 
L 414.72 41.472 
" style="fill: none; stroke: #000000; stroke-width: 0.8; stroke-linejoin: miter; stroke-linecap: square"/>
   </g>
   <g id="text_20">
    <!-- Losses of MLPDROPGCN on DGraph, 200 epochs -->
    <g transform="translate(91.105312 35.472) scale(0.12 -0.12)">
     <defs>
      <path id="DejaVuSans-4c" d="M 628 4666 
L 1259 4666 
L 1259 531 
L 3531 531 
L 3531 0 
L 628 0 
L 628 4666 
z
" transform="scale(0.015625)"/>
      <path id="DejaVuSans-20" transform="scale(0.015625)"/>
      <path id="DejaVuSans-66" d="M 2375 4863 
L 2375 4384 
L 1825 4384 
Q 1516 4384 1395 4259 
Q 1275 4134 1275 3809 
L 1275 3500 
L 2222 3500 
L 2222 3053 
L 1275 3053 
L 1275 0 
L 697 0 
L 697 3053 
L 147 3053 
L 147 3500 
L 697 3500 
L 697 3744 
Q 697 4328 969 4595 
Q 1241 4863 1831 4863 
L 2375 4863 
z
" transform="scale(0.015625)"/>
      <path id="DejaVuSans-4d" d="M 628 4666 
L 1569 4666 
L 2759 1491 
L 3956 4666 
L 4897 4666 
L 4897 0 
L 4281 0 
L 4281 4097 
L 3078 897 
L 2444 897 
L 1241 4097 
L 1241 0 
L 628 0 
L 628 4666 
z
" transform="scale(0.015625)"/>
      <path id="DejaVuSans-50" d="M 1259 4147 
L 1259 2394 
L 2053 2394 
Q 2494 2394 2734 2622 
Q 2975 2850 2975 3272 
Q 2975 3691 2734 3919 
Q 2494 4147 2053 4147 
L 1259 4147 
z
M 628 4666 
L 2053 4666 
Q 2838 4666 3239 4311 
Q 3641 3956 3641 3272 
Q 3641 2581 3239 2228 
Q 2838 1875 2053 1875 
L 1259 1875 
L 1259 0 
L 628 0 
L 628 4666 
z
" transform="scale(0.015625)"/>
      <path id="DejaVuSans-44" d="M 1259 4147 
L 1259 519 
L 2022 519 
Q 2988 519 3436 956 
Q 3884 1394 3884 2338 
Q 3884 3275 3436 3711 
Q 2988 4147 2022 4147 
L 1259 4147 
z
M 628 4666 
L 1925 4666 
Q 3281 4666 3915 4102 
Q 4550 3538 4550 2338 
Q 4550 1131 3912 565 
Q 3275 0 1925 0 
L 628 0 
L 628 4666 
z
" transform="scale(0.015625)"/>
      <path id="DejaVuSans-52" d="M 2841 2188 
Q 3044 2119 3236 1894 
Q 3428 1669 3622 1275 
L 4263 0 
L 3584 0 
L 2988 1197 
Q 2756 1666 2539 1819 
Q 2322 1972 1947 1972 
L 1259 1972 
L 1259 0 
L 628 0 
L 628 4666 
L 2053 4666 
Q 2853 4666 3247 4331 
Q 3641 3997 3641 3322 
Q 3641 2881 3436 2590 
Q 3231 2300 2841 2188 
z
M 1259 4147 
L 1259 2491 
L 2053 2491 
Q 2509 2491 2742 2702 
Q 2975 2913 2975 3322 
Q 2975 3731 2742 3939 
Q 2509 4147 2053 4147 
L 1259 4147 
z
" transform="scale(0.015625)"/>
      <path id="DejaVuSans-4f" d="M 2522 4238 
Q 1834 4238 1429 3725 
Q 1025 3213 1025 2328 
Q 1025 1447 1429 934 
Q 1834 422 2522 422 
Q 3209 422 3611 934 
Q 4013 1447 4013 2328 
Q 4013 3213 3611 3725 
Q 3209 4238 2522 4238 
z
M 2522 4750 
Q 3503 4750 4090 4092 
Q 4678 3434 4678 2328 
Q 4678 1225 4090 567 
Q 3503 -91 2522 -91 
Q 1538 -91 948 565 
Q 359 1222 359 2328 
Q 359 3434 948 4092 
Q 1538 4750 2522 4750 
z
" transform="scale(0.015625)"/>
      <path id="DejaVuSans-47" d="M 3809 666 
L 3809 1919 
L 2778 1919 
L 2778 2438 
L 4434 2438 
L 4434 434 
Q 4069 175 3628 42 
Q 3188 -91 2688 -91 
Q 1594 -91 976 548 
Q 359 1188 359 2328 
Q 359 3472 976 4111 
Q 1594 4750 2688 4750 
Q 3144 4750 3555 4637 
Q 3966 4525 4313 4306 
L 4313 3634 
Q 3963 3931 3569 4081 
Q 3175 4231 2741 4231 
Q 1884 4231 1454 3753 
Q 1025 3275 1025 2328 
Q 1025 1384 1454 906 
Q 1884 428 2741 428 
Q 3075 428 3337 486 
Q 3600 544 3809 666 
z
" transform="scale(0.015625)"/>
      <path id="DejaVuSans-43" d="M 4122 4306 
L 4122 3641 
Q 3803 3938 3442 4084 
Q 3081 4231 2675 4231 
Q 1875 4231 1450 3742 
Q 1025 3253 1025 2328 
Q 1025 1406 1450 917 
Q 1875 428 2675 428 
Q 3081 428 3442 575 
Q 3803 722 4122 1019 
L 4122 359 
Q 3791 134 3420 21 
Q 3050 -91 2638 -91 
Q 1578 -91 968 557 
Q 359 1206 359 2328 
Q 359 3453 968 4101 
Q 1578 4750 2638 4750 
Q 3056 4750 3426 4639 
Q 3797 4528 4122 4306 
z
" transform="scale(0.015625)"/>
      <path id="DejaVuSans-4e" d="M 628 4666 
L 1478 4666 
L 3547 763 
L 3547 4666 
L 4159 4666 
L 4159 0 
L 3309 0 
L 1241 3903 
L 1241 0 
L 628 0 
L 628 4666 
z
" transform="scale(0.015625)"/>
      <path id="DejaVuSans-6e" d="M 3513 2113 
L 3513 0 
L 2938 0 
L 2938 2094 
Q 2938 2591 2744 2837 
Q 2550 3084 2163 3084 
Q 1697 3084 1428 2787 
Q 1159 2491 1159 1978 
L 1159 0 
L 581 0 
L 581 3500 
L 1159 3500 
L 1159 2956 
Q 1366 3272 1645 3428 
Q 1925 3584 2291 3584 
Q 2894 3584 3203 3211 
Q 3513 2838 3513 2113 
z
" transform="scale(0.015625)"/>
      <path id="DejaVuSans-72" d="M 2631 2963 
Q 2534 3019 2420 3045 
Q 2306 3072 2169 3072 
Q 1681 3072 1420 2755 
Q 1159 2438 1159 1844 
L 1159 0 
L 581 0 
L 581 3500 
L 1159 3500 
L 1159 2956 
Q 1341 3275 1631 3429 
Q 1922 3584 2338 3584 
Q 2397 3584 2469 3576 
Q 2541 3569 2628 3553 
L 2631 2963 
z
" transform="scale(0.015625)"/>
      <path id="DejaVuSans-61" d="M 2194 1759 
Q 1497 1759 1228 1600 
Q 959 1441 959 1056 
Q 959 750 1161 570 
Q 1363 391 1709 391 
Q 2188 391 2477 730 
Q 2766 1069 2766 1631 
L 2766 1759 
L 2194 1759 
z
M 3341 1997 
L 3341 0 
L 2766 0 
L 2766 531 
Q 2569 213 2275 61 
Q 1981 -91 1556 -91 
Q 1019 -91 701 211 
Q 384 513 384 1019 
Q 384 1609 779 1909 
Q 1175 2209 1959 2209 
L 2766 2209 
L 2766 2266 
Q 2766 2663 2505 2880 
Q 2244 3097 1772 3097 
Q 1472 3097 1187 3025 
Q 903 2953 641 2809 
L 641 3341 
Q 956 3463 1253 3523 
Q 1550 3584 1831 3584 
Q 2591 3584 2966 3190 
Q 3341 2797 3341 1997 
z
" transform="scale(0.015625)"/>
      <path id="DejaVuSans-2c" d="M 750 794 
L 1409 794 
L 1409 256 
L 897 -744 
L 494 -744 
L 750 256 
L 750 794 
z
" transform="scale(0.015625)"/>
     </defs>
     <use xlink:href="#DejaVuSans-4c"/>
     <use xlink:href="#DejaVuSans-6f" x="53.962891"/>
     <use xlink:href="#DejaVuSans-73" x="115.144531"/>
     <use xlink:href="#DejaVuSans-73" x="167.244141"/>
     <use xlink:href="#DejaVuSans-65" x="219.34375"/>
     <use xlink:href="#DejaVuSans-73" x="280.867188"/>
     <use xlink:href="#DejaVuSans-20" x="332.966797"/>
     <use xlink:href="#DejaVuSans-6f" x="364.753906"/>
     <use xlink:href="#DejaVuSans-66" x="425.935547"/>
     <use xlink:href="#DejaVuSans-20" x="461.140625"/>
     <use xlink:href="#DejaVuSans-4d" x="492.927734"/>
     <use xlink:href="#DejaVuSans-4c" x="579.207031"/>
     <use xlink:href="#DejaVuSans-50" x="634.919922"/>
     <use xlink:href="#DejaVuSans-44" x="695.222656"/>
     <use xlink:href="#DejaVuSans-52" x="772.224609"/>
     <use xlink:href="#DejaVuSans-4f" x="841.707031"/>
     <use xlink:href="#DejaVuSans-50" x="920.417969"/>
     <use xlink:href="#DejaVuSans-47" x="980.720703"/>
     <use xlink:href="#DejaVuSans-43" x="1058.210938"/>
     <use xlink:href="#DejaVuSans-4e" x="1128.035156"/>
     <use xlink:href="#DejaVuSans-20" x="1202.839844"/>
     <use xlink:href="#DejaVuSans-6f" x="1234.626953"/>
     <use xlink:href="#DejaVuSans-6e" x="1295.808594"/>
     <use xlink:href="#DejaVuSans-20" x="1359.1875"/>
     <use xlink:href="#DejaVuSans-44" x="1390.974609"/>
     <use xlink:href="#DejaVuSans-47" x="1467.976562"/>
     <use xlink:href="#DejaVuSans-72" x="1545.466797"/>
     <use xlink:href="#DejaVuSans-61" x="1586.580078"/>
     <use xlink:href="#DejaVuSans-70" x="1647.859375"/>
     <use xlink:href="#DejaVuSans-68" x="1711.335938"/>
     <use xlink:href="#DejaVuSans-2c" x="1774.714844"/>
     <use xlink:href="#DejaVuSans-20" x="1806.501953"/>
     <use xlink:href="#DejaVuSans-32" x="1838.289062"/>
     <use xlink:href="#DejaVuSans-30" x="1901.912109"/>
     <use xlink:href="#DejaVuSans-30" x="1965.535156"/>
     <use xlink:href="#DejaVuSans-20" x="2029.158203"/>
     <use xlink:href="#DejaVuSans-65" x="2060.945312"/>
     <use xlink:href="#DejaVuSans-70" x="2122.46875"/>
     <use xlink:href="#DejaVuSans-6f" x="2185.945312"/>
     <use xlink:href="#DejaVuSans-63" x="2247.126953"/>
     <use xlink:href="#DejaVuSans-68" x="2302.107422"/>
     <use xlink:href="#DejaVuSans-73" x="2365.486328"/>
    </g>
   </g>
   <g id="legend_1">
    <g id="patch_7">
     <path d="M 329.23875 78.82825 
L 407.72 78.82825 
Q 409.72 78.82825 409.72 76.82825 
L 409.72 48.472 
Q 409.72 46.472 407.72 46.472 
L 329.23875 46.472 
Q 327.23875 46.472 327.23875 48.472 
L 327.23875 76.82825 
Q 327.23875 78.82825 329.23875 78.82825 
z
" style="fill: #ffffff; opacity: 0.8; stroke: #cccccc; stroke-linejoin: miter"/>
    </g>
    <g id="line2d_20">
     <path d="M 331.23875 54.570437 
L 341.23875 54.570437 
L 351.23875 54.570437 
" style="fill: none; stroke: #1f77b4; stroke-width: 1.5; stroke-linecap: square"/>
    </g>
    <g id="text_21">
     <!-- Train loss -->
     <g transform="translate(359.23875 58.070437) scale(0.1 -0.1)">
      <defs>
       <path id="DejaVuSans-54" d="M -19 4666 
L 3928 4666 
L 3928 4134 
L 2272 4134 
L 2272 0 
L 1638 0 
L 1638 4134 
L -19 4134 
L -19 4666 
z
" transform="scale(0.015625)"/>
       <path id="DejaVuSans-69" d="M 603 3500 
L 1178 3500 
L 1178 0 
L 603 0 
L 603 3500 
z
M 603 4863 
L 1178 4863 
L 1178 4134 
L 603 4134 
L 603 4863 
z
" transform="scale(0.015625)"/>
      </defs>
      <use xlink:href="#DejaVuSans-54"/>
      <use xlink:href="#DejaVuSans-72" x="46.333984"/>
      <use xlink:href="#DejaVuSans-61" x="87.447266"/>
      <use xlink:href="#DejaVuSans-69" x="148.726562"/>
      <use xlink:href="#DejaVuSans-6e" x="176.509766"/>
      <use xlink:href="#DejaVuSans-20" x="239.888672"/>
      <use xlink:href="#DejaVuSans-6c" x="271.675781"/>
      <use xlink:href="#DejaVuSans-6f" x="299.458984"/>
      <use xlink:href="#DejaVuSans-73" x="360.640625"/>
      <use xlink:href="#DejaVuSans-73" x="412.740234"/>
     </g>
    </g>
    <g id="line2d_21">
     <path d="M 331.23875 69.248562 
L 341.23875 69.248562 
L 351.23875 69.248562 
" style="fill: none; stroke: #ff7f0e; stroke-width: 1.5; stroke-linecap: square"/>
    </g>
    <g id="text_22">
     <!-- Val loss -->
     <g transform="translate(359.23875 72.748562) scale(0.1 -0.1)">
      <defs>
       <path id="DejaVuSans-56" d="M 1831 0 
L 50 4666 
L 709 4666 
L 2188 738 
L 3669 4666 
L 4325 4666 
L 2547 0 
L 1831 0 
z
" transform="scale(0.015625)"/>
      </defs>
      <use xlink:href="#DejaVuSans-56"/>
      <use xlink:href="#DejaVuSans-61" x="60.658203"/>
      <use xlink:href="#DejaVuSans-6c" x="121.9375"/>
      <use xlink:href="#DejaVuSans-20" x="149.720703"/>
      <use xlink:href="#DejaVuSans-6c" x="181.507812"/>
      <use xlink:href="#DejaVuSans-6f" x="209.291016"/>
      <use xlink:href="#DejaVuSans-73" x="270.472656"/>
      <use xlink:href="#DejaVuSans-73" x="322.572266"/>
     </g>
    </g>
   </g>
  </g>
 </g>
 <defs>
  <clipPath id="p1e37308997">
   <rect x="57.6" y="41.472" width="357.12" height="266.112"/>
  </clipPath>
 </defs>
</svg>
